<?xml version="1.0" encoding="UTF-8" standalone="no"?>
<!-- Created with Inkscape (http://www.inkscape.org/) -->

<svg
   width="75"
   height="75"
   viewBox="0 0 19.84375 19.84375"
   version="1.1"
   id="svg1"
   xml:space="preserve"
   inkscape:version="1.3.2 (091e20e, 2023-11-25, custom)"
   sodipodi:docname="edge.svg"
   xmlns:inkscape="http://www.inkscape.org/namespaces/inkscape"
   xmlns:sodipodi="http://sodipodi.sourceforge.net/DTD/sodipodi-0.dtd"
   xmlns="http://www.w3.org/2000/svg"
   xmlns:svg="http://www.w3.org/2000/svg"><sodipodi:namedview
     id="namedview1"
     pagecolor="#ffffff"
     bordercolor="#000000"
     borderopacity="0.25"
     inkscape:showpageshadow="2"
     inkscape:pageopacity="0.0"
     inkscape:pagecheckerboard="0"
     inkscape:deskcolor="#d1d1d1"
     inkscape:document-units="px"
     inkscape:zoom="16.388211"
     inkscape:cx="23.217909"
     inkscape:cy="16.566786"
     inkscape:window-width="2560"
     inkscape:window-height="1009"
     inkscape:window-x="-8"
     inkscape:window-y="-8"
     inkscape:window-maximized="1"
     inkscape:current-layer="layer1" /><defs
     id="defs1" /><g
     inkscape:label="Layer 1"
     inkscape:groupmode="layer"
     id="layer1"><path
       style="fill:#404040;fill-opacity:1;stroke-width:1.5875;stroke-miterlimit:23.6"
       d="m 0,0 2.6458333,2.6458333 c 0,0 0.4654695,0.6614584 7.2760417,0.6614584 6.810572,0 7.276042,-0.6614584 7.276042,-0.6614584 L 19.84375,0"
       id="path1"
       sodipodi:nodetypes="cczcc" /><path
       style="fill:#808080;fill-opacity:1;stroke-width:1.5875;stroke-miterlimit:23.6"
       d="m 1.3855951,0.8560769 c 0.390474,0.6532119 0.6952541,1.4829116 1.8939181,1.7897564 0,0 1.6722218,-0.079088 2.2509186,-0.5650657 0.4638409,-0.3895239 0.3302563,-1.2246911 0.3302563,-1.2246911 0.03661,-1.2292106 -4.449204,-0.8622402 -4.475093,4e-7 z"
       id="path2"
       sodipodi:nodetypes="ccscc" /><path
       style="fill:#808080;fill-opacity:1;stroke-width:1.5875;stroke-miterlimit:23.6"
       d="M 14.503288,0.67785639 C 14.091289,1.2593496 14.213713,2.3060706 15.412377,2.6129154 16.10277,2.7896485 17.084599,2.5338274 17.663296,2.0478497 18.127137,1.6583258 17.335374,1.9264838 17.363907,0.96846123 c 0.03661,-1.2292106 -2.306523,-1.07265311 -2.860619,-0.29060484 z"
       id="path2-2"
       sodipodi:nodetypes="asssa" /><path
       style="fill:#808080;fill-opacity:1;stroke-width:1.5875;stroke-miterlimit:23.6"
       d="m 12.130817,0.72219035 c -0.482674,0.81844825 0.0586,0.74164995 0.657936,0.89507235 0.599332,0.1534224 0.471511,0.3273632 1.154978,-0.2943461 0.683467,-0.62170935 0.624695,-1.42036443 -0.398474,-1.20589624 -1.02317,0.2144682 -0.931766,-0.21327828 -1.41444,0.60516999 z"
       id="path2-2-2"
       sodipodi:nodetypes="zzzzz" /><path
       style="fill:#808080;fill-opacity:1;stroke-width:1.5875;stroke-miterlimit:23.6"
       d="m 17.77026,0.16548353 c -0.567353,0.20027383 -0.283256,1.78332817 0.269157,1.38893967 0,0 0.353368,-0.1628235 0.697948,-0.62966609 0.34458,-0.46684256 0.2382,-0.23882433 0.482832,-0.5837366 0.244631,-0.34491226 -0.882583,-0.3758108 -1.449937,-0.17553698 z"
       id="path2-2-8"
       sodipodi:nodetypes="zczzz" /><path
       style="fill:#808080;fill-opacity:1;stroke-width:1.5875;stroke-miterlimit:23.6"
       d="m 13.372275,1.9271265 c -0.77257,0 -1.278278,0.5520893 -0.06049,0.8939901 0,0 0.710571,0.480751 1.400354,0.1721021 C 15.921371,2.4521381 14.800629,2.8897718 14.442415,2.2049395 14.006841,1.3721962 14.31383,1.3757777 13.372278,1.9271265 Z"
       id="path2-2-6"
       sodipodi:nodetypes="scssss" /><path
       style="fill:#808080;fill-opacity:1;stroke-width:1.5875;stroke-miterlimit:23.6"
       d="M 8.6320445,0.38012485 C 7.8897714,0.83208028 8.7232113,2.6618832 9.921875,2.968728 c 0,0 1.695099,-0.1635112 2.273796,-0.6494889 0.463841,-0.3895239 -0.61282,-0.5370669 -0.50927,-1.48990414 0.120545,-1.10922905 -2.2303006,-0.95096147 -3.0543565,-0.44921011 z"
       id="path2-2-0"
       sodipodi:nodetypes="scsss" /><path
       style="fill:#808080;fill-opacity:1;stroke-width:1.5875;stroke-miterlimit:23.6"
       d="M 6.2580136,0.40195178 C 5.9253008,0.85201887 6.3658127,1.7513339 5.7170843,2.1937807 5.5991035,3.0484239 7.5163058,2.5932453 8.1425875,1.7625685 8.5072287,1.2789218 7.7787123,1.3881459 8.2145274,0.53451448 8.5519758,-0.12644589 6.6219183,-0.09030917 6.2580136,0.40195178 Z"
       id="path2-2-4"
       sodipodi:nodetypes="scsss" /><path
       style="fill:#808080;fill-opacity:1;stroke-width:1.5875;stroke-miterlimit:23.6"
       d="m 8.1400654,3.0466699 c 0.4620224,-0.056553 1.246635,0.5428455 0.8752515,-0.3167733 -0.192907,-0.44651 -1.0329039,-1.1459168 -1.5640564,0 -0.2435628,0.5254664 0.3746208,0.3552303 0.6888049,0.3167733 z"
       id="path2-2-1"
       sodipodi:nodetypes="ssss" /></g></svg>
