<?xml version="1.0" encoding="UTF-8" standalone="no"?>
<!-- Created with Inkscape (http://www.inkscape.org/) -->

<svg
   width="75"
   height="75"
   viewBox="0 0 19.84375 19.84375"
   version="1.1"
   id="svg1"
   xml:space="preserve"
   inkscape:version="1.3.2 (091e20e, 2023-11-25, custom)"
   sodipodi:docname="straight.svg"
   xmlns:inkscape="http://www.inkscape.org/namespaces/inkscape"
   xmlns:sodipodi="http://sodipodi.sourceforge.net/DTD/sodipodi-0.dtd"
   xmlns="http://www.w3.org/2000/svg"
   xmlns:svg="http://www.w3.org/2000/svg"><sodipodi:namedview
     id="namedview1"
     pagecolor="#ffffff"
     bordercolor="#000000"
     borderopacity="0.25"
     inkscape:showpageshadow="2"
     inkscape:pageopacity="0.0"
     inkscape:pagecheckerboard="0"
     inkscape:deskcolor="#d1d1d1"
     inkscape:document-units="px"
     inkscape:zoom="1.8454864"
     inkscape:cx="33.053616"
     inkscape:cy="127.06677"
     inkscape:window-width="2560"
     inkscape:window-height="1009"
     inkscape:window-x="-8"
     inkscape:window-y="-8"
     inkscape:window-maximized="1"
     inkscape:current-layer="layer1" /><defs
     id="defs1"><inkscape:path-effect
       effect="bend_path"
       id="path-effect134"
       is_visible="true"
       lpeversion="1"
       bendpath="M 0.22809677,14.118721 C 8.8806982,14.29748 19.151264,12.717129 19.641922,4.158495"
       prop_scale="1"
       scale_y_rel="false"
       vertical="false"
       hide_knot="false"
       bendpath-nodetypes="cc" /><inkscape:path-effect
       effect="bend_path"
       id="path-effect133"
       is_visible="true"
       lpeversion="1"
       bendpath="M 0.20612487,9.0327504 C 6.1304422,8.920147 10.437434,11.778153 10.831159,19.84375"
       prop_scale="1"
       scale_y_rel="false"
       vertical="false"
       hide_knot="false"
       bendpath-nodetypes="cc" /><inkscape:path-effect
       effect="bend_path"
       id="path-effect132"
       is_visible="true"
       lpeversion="1"
       bendpath="M 0.23073594,10.891006 C 6.9166643,11.347834 9.0668197,15.066307 8.7380239,19.843752"
       prop_scale="1"
       scale_y_rel="false"
       vertical="false"
       hide_knot="false"
       bendpath-nodetypes="cc" /><inkscape:path-effect
       effect="bend_path"
       id="path-effect131"
       is_visible="true"
       lpeversion="1"
       bendpath="M 0.18043366,7.3092125 C 5.1546222,7.3177215 13.044196,9.2521518 12.265471,19.84375"
       prop_scale="1"
       scale_y_rel="false"
       vertical="false"
       hide_knot="false"
       bendpath-nodetypes="cc" /><inkscape:path-effect
       effect="bend_path"
       id="path-effect129"
       is_visible="true"
       lpeversion="1"
       bendpath="M 0.23006514,7.6440955 C 4.0769265,7.5429364 12.041902,8.5674039 12.053393,19.912786"
       prop_scale="1"
       scale_y_rel="false"
       vertical="false"
       hide_knot="false"
       bendpath-nodetypes="cc" /></defs><g
     inkscape:label="Layer 1"
     inkscape:groupmode="layer"
     id="layer1"><path
       style="fill:#404040;fill-opacity:1;stroke-width:1.5875;stroke-miterlimit:23.6"
       d="m 0,11.90625 c 1.8976835,-0.06873 4.1563138,0.125495 5.3106394,0.110138 1.502631,-0.224163 2.2305398,0.02257 3.7466028,-0.116643 1.8801818,-0.166529 1.5511788,-0.03494 3.3913798,0.0016 0.462386,0.0092 1.155035,0.242082 1.618674,0.212565 l 3.261617,-0.207645 2.514837,6e-6 V 7.9375 c 0,-0.028166 -1.619523,-0.073267 -2.285419,-0.1022575 -0.541202,0.1519438 -1.17872,-0.01708 -1.656626,0.030196 C 14.265012,8.1077236 13.464421,7.8248049 12.013082,8.0773974 10.518693,7.692803 8.4100956,8.0622842 6.865473,7.9427943 5.5460911,7.8720937 6.4028758,7.9784187 3.8628686,7.9487092 2.8531312,7.9368987 1.1445017,7.9356572 0,7.9375 Z"
       id="path133"
       sodipodi:nodetypes="cssssccsccssscc" /><path
       id="path127"
       style="fill:#808080;fill-opacity:1;stroke-width:0.999998"
       d="m 19.629086,11.52165 c 0.01965,0.0106 -0.07085,0.137819 -0.11556,0.124812 L 17.451774,11.53799 c -0.06832,-0.0037 0.06792,-0.277106 -7.53e-4,-0.39405 -0.03592,-0.06107 -0.03291,-0.144106 0.0087,-0.253678 0.04717,-0.123437 0.04694,-0.167547 -9.55e-4,-0.182111 -0.0884,-0.02684 -0.07901,-0.152174 0.01808,-0.240608 0.04478,-0.0408 0.08145,-0.114389 0.08145,-0.16352 0,-0.197724 0.334042,-0.282963 0.75858,-0.193568 0.135298,0.0285 0.441485,0.04964 0.680412,0.04701 0.528122,-0.0059 0.596593,0.02602 0.555202,0.258332 -0.01695,0.0955 -0.01548,0.187706 0.0033,0.204895 0.01891,0.01718 0.131707,0.412156 0.123174,0.519809 M 15.94533,10.207766 c 0.11431,0.03048 0.261541,0.02753 0.429706,-0.0085 0.190594,-0.04096 0.304546,-0.04033 0.446928,0.0024 0.105108,0.03159 0.219796,0.04129 0.254861,0.02155 0.03738,-0.02106 0.04938,-0.01461 0.02884,0.01559 -0.01929,0.02831 0.01594,0.06361 0.07828,0.07842 0.09735,0.02319 0.107416,0.04979 0.07217,0.191097 -0.02255,0.09028 -0.04535,0.275433 -0.05076,0.411448 -0.0096,0.251107 -0.069,0.670989 -0.116817,0.828447 -0.02088,0.06873 -0.0864,0.08656 -0.31804,0.08656 -0.160487,0 -0.306899,-0.02226 -0.325358,-0.04945 -0.03985,-0.05887 -0.542329,-0.06015 -0.923124,-0.0023 -0.149329,0.02266 -0.305244,0.02438 -0.346476,0.0038 -0.0413,-0.02055 -0.179208,-0.0088 -0.30661,0.02613 -0.355945,0.09757 -0.74982,0.126164 -0.679826,0.04935 l 5.2e-5,-1.4e-5 c 0.04253,-0.04663 0.0058,-0.08146 -0.146949,-0.140107 -0.302087,-0.115878 -0.45193,-0.134859 -0.685213,-0.08679 -0.325022,0.06696 -0.374346,0.02943 -0.331783,-0.252453 0.0243,-0.161339 0.01671,-0.24058 -0.02304,-0.24058 -0.0326,0 -0.05939,0.03471 -0.05939,0.07711 0,0.04241 -0.02437,0.06335 -0.05422,0.04654 -0.04735,-0.0267 -0.079,0.140405 -0.06822,0.361982 0.0019,0.04218 -0.02854,0.05278 -0.08654,0.03 -0.168018,-0.06606 -1.945012,-0.123733 -2.105021,-0.06832 -0.117472,0.04068 -0.122889,0.0363 -0.06306,-0.05106 0.04739,-0.06922 0.07713,-0.07906 0.107771,-0.0357 0.02321,0.03292 0.03671,-0.107074 0.0299,-0.311096 -0.0066,-0.20402 0.0051,-0.426589 0.02706,-0.494596 0.02165,-0.06801 0.02524,-0.09582 0.0079,-0.06183 -0.04634,0.09203 -0.106544,0.07478 -0.115459,-0.03309 -0.0042,-0.05221 0.0272,-0.107151 0.06984,-0.122096 0.04281,-0.01494 0.07778,-0.06813 0.07778,-0.118193 0,-0.250732 0.324718,-0.342355 0.816006,-0.230247 0.135212,0.03085 0.384546,0.04562 0.554074,0.03281 0.169533,-0.01281 0.390028,-0.0093 0.490003,0.0078 l 0.181762,0.03106 -0.01338,0.394051 c -0.0071,0.216729 0.0095,0.407048 0.03793,0.422931 0.02826,0.01588 0.05132,0.0053 0.05132,-0.0235 0,-0.02881 0.03052,-0.04682 0.06783,-0.04001 0.05053,0.0092 0.0645,-0.08495 0.05439,-0.367665 -0.01534,-0.435769 0.01818,-0.467416 0.435497,-0.410421 0.364178,0.04973 1.071286,0.05331 1.071241,0.0054 -2.3e-5,-0.02373 0.0372,-0.015 0.08268,0.01942 0.04549,0.03442 0.09819,0.04846 0.117177,0.03122 0.01895,-0.01724 0.06508,-0.0083 0.450497,0.0083 0.5291,-0.06135 0.654312,-0.06825 0.777503,-0.0354 z M 5.0064503,11.873467 c -0.05767,-0.02264 -0.1168855,-0.07723 -0.1315924,-0.121323 -0.03366,-0.100903 -0.096759,-0.573918 -0.096132,-0.720642 3.974e-4,-0.08984 0.054843,-0.916401 0.063438,-0.962725 0.00672,-0.03604 0.3767282,0.05472 0.4454812,0.109277 0.049233,0.03906 0.1639055,0.05897 0.3021648,0.05245 0.1225515,-0.0058 0.2378453,0.0032 0.2562093,0.0199 0.046373,0.04223 0.044787,0.404856 -0.00444,0.990017 -0.032101,0.382288 -0.061088,0.512062 -0.1264014,0.565904 -0.1001196,0.08253 -0.5589238,0.125979 -0.7088154,0.06713 z M 0.22541727,11.710262 c -0.0825847,-0.02207 -0.11091597,-0.08087 -0.0822955,-0.170797 0.007718,-0.0243 0.0173942,-0.35705 0.0214581,-0.739459 0.004114,-0.382408 0.023216,-0.709691 0.0425449,-0.727294 0.0575294,-0.0524 0.48126386,-0.01879 0.5247838,0.04162 0.0221158,0.0307 0.064461,0.140633 0.0941047,0.244297 0.0296415,0.103666 0.0730377,0.199251 0.0964292,0.212418 0.0569899,0.03208 0.0566682,0.03062 -0.0544582,-0.246297 -0.0533499,-0.132933 -0.0969907,-0.246945 -0.0969907,-0.253362 0,-0.0477 0.25149383,0.0024 0.27343423,0.05459 0.015358,0.03644 0.053019,0.06625 0.083691,0.06625 0.088222,0 0.3222987,0.388083 0.3695707,0.612737 0.02366,0.112436 0.076091,0.276033 0.1165209,0.363549 0.05883,0.127329 0.062658,0.191309 0.019213,0.320241 -0.029857,0.08861 -0.080632,0.161121 -0.1128357,0.161121 -0.032209,0 -0.1246953,0.01206 -0.2055449,0.02678 -0.1171711,0.02134 -0.1517016,0.01018 -0.1701703,-0.05522 -0.020611,-0.07293 -0.023787,-0.07345 -0.028793,-0.0047 -0.00306,0.04252 -0.032912,0.07785 -0.066252,0.07852 -0.03334,6.74e-4 -0.21337924,0.0094 -0.40008639,0.01943 -0.18670807,0.01007 -0.37765885,0.0081 -0.42433507,-0.0045 z M 2.4050872,11.250384 c 0.00193,-0.100088 0.038917,-0.214169 0.083873,-0.259414 0.074987,-0.07547 0.074197,-0.0822 -0.011923,-0.102713 -0.073565,-0.01751 -0.0908,-0.05929 -0.085379,-0.206801 0.00406,-0.108502 0.036248,-0.202091 0.078113,-0.226601 0.062584,-0.03664 0.062403,-0.04727 -0.00139,-0.08676 -0.1123439,-0.06951 0.080686,-0.185765 0.2754473,-0.165881 0.084817,0.0087 0.144637,0.0016 0.1329392,-0.0156 -0.011696,-0.01724 0.049845,-0.04571 0.1367637,-0.06327 0.1380176,-0.02789 0.1457491,-0.03634 0.061046,-0.06675 -0.074925,-0.02689 -0.055757,-0.03553 0.084308,-0.03792 0.1721285,-0.0029 0.3961376,0.108748 0.3511302,0.175079 -0.01116,0.01644 0.033346,0.02057 0.09891,0.0091 0.065568,-0.01141 0.1086754,-0.03628 0.095806,-0.05525 -0.030064,-0.0443 0.094958,-0.08792 0.2519884,-0.08792 0.1068108,0 0.1185857,0.01432 0.091784,0.111551 -0.028014,0.101652 -0.019872,0.109069 0.091728,0.08356 0.1019607,-0.02332 0.1224718,-0.01239 0.1224718,0.06513 0,0.05122 -0.023107,0.09313 -0.051361,0.09313 -0.028993,0 -0.03483,0.02404 -0.013406,0.05522 0.020873,0.03036 0.040662,0.07509 0.043985,0.09938 0.0032,0.0243 0.00924,0.06902 0.013406,0.09938 0.0041,0.03036 0.052495,0.05522 0.1076402,0.05522 0.074903,0 0.093168,0.02034 0.072238,0.08043 -0.015412,0.04424 -0.00844,0.208224 0.015412,0.364412 0.023871,0.15619 0.036251,0.291141 0.027484,0.299895 -0.048174,0.04812 -0.7300257,0.146996 -1.0640501,0.154284 -0.2133805,0.0047 -0.4099528,0.02113 -0.4368288,0.0366 -0.026868,0.01547 -0.1271762,0.04151 -0.2228916,0.05786 -0.1736288,0.02965 -0.2806692,-0.03338 -0.3452709,-0.16173 -0.064754,-0.12865 -0.015312,-0.202972 -0.00406,-0.303673 z m 3.894384,0.44797 c -0.093318,-0.02455 -0.1177125,-0.05669 -0.1059226,-0.139566 0.00844,-0.05921 0.020979,-0.395881 0.027917,-0.748147 0.00695,-0.352265 0.016404,-0.66301 0.021056,-0.690543 0.012425,-0.07354 0.1640595,-0.07309 0.385594,-0.06217 0.4622172,0.02278 0.3582106,-0.1701843 0.7516372,-0.1307103 0.1694926,0.01701 0.8940018,0.2925383 0.8415769,0.3402913 -0.016324,0.01487 -0.00547,0.05371 0.024326,0.0863 0.029707,0.03261 0.03389,0.05928 0.00924,0.05928 -0.024589,0 -0.048304,0.239728 -0.052678,0.532728 -0.00958,0.64571 -0.046453,0.695847 -0.5206632,0.709509 -0.1600345,0.0046 -0.3478184,0.01221 -0.4172967,0.01688 -0.06948,0.0047 -0.2877082,0.01964 -0.484954,0.03326 -0.197248,0.01363 -0.4131879,0.01039 -0.4798695,-0.0072 z M 8.4475955,11.18312 c -0.00958,-0.119003 -0.00547,-0.152859 0.088118,-0.198454 0.1086636,-0.05297 0.1094515,-0.05672 0.01792,-0.08596 -0.1294199,-0.04135 -0.1567491,-0.419271 -0.033435,-0.462371 0.06671,-0.02332 0.068682,-0.0344 0.01181,-0.06641 -0.1143329,-0.06436 0.02323,-0.164436 0.2729324,-0.198541 0.1226903,-0.01675 0.2692918,-0.04747 0.3257818,-0.06826 0.099119,-0.03647 0.099328,-0.03804 0.00581,-0.04511 -0.057187,-0.0043 -0.027564,-0.02219 0.072203,-0.04356 0.093054,-0.01993 0.1803484,-0.0217 0.1939816,-0.0039 0.050727,0.06603 0.2671181,0.181724 0.3386764,0.18107 0.059106,-5.4e-4 0.061008,-0.0083 0.00935,-0.03804 -0.048331,-0.02791 -0.036068,-0.04435 0.048503,-0.06498 0.1964207,-0.04791 0.3314453,-0.03265 0.3314453,0.03744 0,0.03644 -0.0231,0.06625 -0.05135,0.06625 -0.02826,0 -0.03781,0.01995 -0.02128,0.04433 0.01654,0.02438 0.08329,0.03217 0.148348,0.01729 0.08727,-0.01995 0.118266,-0.0091 0.118266,0.0414 0,0.03764 -0.02217,0.08093 -0.04935,0.09618 -0.02717,0.01525 -0.03341,0.05119 -0.01395,0.07985 0.01951,0.02866 0.03619,0.09189 0.03716,0.140504 0.0011,0.05602 0.03976,0.09334 0.105681,0.101888 0.07008,0.0091 0.0971,0.03784 0.08309,0.08835 -0.01147,0.04118 -0.0017,0.199351 0.02157,0.351514 0.02901,0.189707 0.02567,0.288607 -0.01027,0.31467 -0.0845,0.061 -0.6938904,0.136338 -1.1680729,0.144412 -0.1600341,0.0027 -0.3127958,0.01987 -0.3394675,0.03809 -0.026664,0.01822 -0.1173796,0.04654 -0.2015566,0.06292 -0.1222236,0.02378 -0.1735217,0.0097 -0.2546015,-0.06949 -0.055856,-0.0546 -0.1029231,-0.120369 -0.1046168,-0.146156 -0.046876,-0.230862 0.041471,-0.01798 0.017375,-0.314886 z m -6.7763256,0.367389 c 0.021277,-0.05466 0.039324,-0.198771 0.040129,-0.320242 0.00166,-0.259125 -0.2622519,-0.816121 -0.5071833,-1.070208 -0.1664306,-0.1726513 0.077875,-0.0694 0.3308415,-0.07066 0.1884054,-9.29e-4 0.6422977,0.124888 0.6422977,0.206714 0,0.036 0.027281,0.07548 0.060615,0.08772 0.041081,0.01509 0.036921,0.02341 -0.012883,0.02576 -0.060931,0.0029 -0.07484,0.0944 -0.081354,0.534916 -0.00735,0.497607 -0.015011,0.536868 -0.1204769,0.616926 -0.061946,0.04702 -0.175183,0.08616 -0.2516427,0.08697 -0.1235198,0.0013 -0.134707,-0.0096 -0.1003487,-0.09791 z"
       sodipodi:nodetypes="ccccccssccscccccccccscscccccccsssssccscssccccsssccccscccscsccccscccccscccccccccscscssccscccsccccscccsccccccccsscsscccscsscscscccccccsscssccccccsccscscccsssssccsscccscccccccccccscscccsccc" /><path
       id="path6"
       style="fill:#808080;fill-opacity:1;stroke-width:0.999995"
       d="m 19.17716,9.8041414 c -0.160236,0 -0.211662,0.014302 -0.211662,0.058867 0,0.032377 -0.01826,0.058867 -0.04055,0.058867 -0.02231,0 -0.0297,-0.026494 -0.01646,-0.058867 0.01713,-0.041835 -0.0045,-0.059393 -0.07458,-0.060683 -0.471571,-0.00864 -0.89413,-0.044175 -0.938784,-0.07892 -0.132911,-0.00918 -0.09516,-0.2501062 -0.0599,-0.3705946 0.01979,-0.04317 0.0373,-0.1525058 0.03892,-0.2429682 0.0015,-0.090462 0.01909,-0.1738319 0.03882,-0.1852655 0.01974,-0.011434 0.04644,-0.1140234 0.05934,-0.2279776 -0.01406,-0.2316864 0.06164,-0.3160908 0.09622,-0.4931038 0.01367,-0.058597 0.03103,-0.1259698 0.03858,-0.1497175 0.01762,-0.055467 0.295678,-0.078914 0.907147,-0.076493 0.753026,-0.1270336 0.558437,0.058809 0.571644,0.4338937 0.02475,0.050923 0.02592,0.1511227 0.02214,0.2245879 -0.01803,0.3516571 0.05661,-0.00976 0.02675,0.3343974 -0.005,0.059163 -0.0122,0.1745065 -0.09583,0.4592166 -0.149409,0.3731301 -0.152179,0.3747538 -0.361838,0.3747538 z M 14.484535,8.8722818 c -0.03489,0.060923 -0.08198,0.1019826 -0.08198,0.1275788 0,0.025597 -0.02698,0.097819 -0.05996,0.1604937 -0.09003,0.1711338 -0.124225,0.329805 -0.07107,0.329805 0.06219,0 -0.02612,0.1950225 -0.12724,0.2810099 -0.08037,0.06834 -0.06766,0.068205 -1.039105,0.010988 -0.218534,-0.01287 -0.428173,-0.03564 -0.450015,-0.064395 -0.0625,-0.082282 -0.148158,-0.02082 -0.02402,-0.3589109 0.0078,-0.085472 0.123165,-0.734484 0.167723,-0.9437005 -0.03181,-0.1397978 -0.07775,-0.098533 0.07439,-0.2929664 0.02346,-0.1001337 0.04716,-0.1175763 0.16093,-0.1184451 0.07338,-5.686e-4 0.394582,-0.00411 0.713782,-0.00787 0.601938,-0.00711 0.693898,0.016405 0.625719,0.1599411 -0.02754,0.057973 -0.02743,0.1610415 3.96e-4,0.4317 0.02242,0.2178982 0.02526,0.2259287 0.08777,0.248419 m 0.27507,-0.4513499 c 0.03131,-0.093441 0.06976,-0.1841107 0.08545,-0.2014882 0.07821,-0.08666 1.235162,-0.07946 2.384914,0.014843 0.241752,0.019829 0.464075,0.027497 0.494051,0.01704 0.02998,-0.010457 0.04379,-0.00277 0.03071,0.017073 -0.0131,0.019847 -0.0043,0.047355 0.01943,0.06113 0.02377,0.013776 0.03239,0.041486 0.01914,0.061581 L 17.72446,8.686171 c -0.0033,0.1076299 -0.0277,0.2839937 -0.05424,0.3919188 -0.02655,0.1079254 -0.05945,0.2845298 -0.07311,0.3924551 -0.01366,0.1079241 -0.04033,0.2056828 -0.05929,0.2172409 -0.01894,0.011558 -0.208006,0.00801 -0.420136,-0.00788 -0.212129,-0.015885 -0.401226,-0.01989 -0.420214,-0.00888 -0.01899,0.01101 -0.03452,-0.00752 -0.03452,-0.041175 0,-0.049425 -0.05834,-0.06195 -0.303499,-0.065168 -0.166923,-0.00217 -0.375117,-0.01008 -0.462652,-0.017527 -0.112907,-0.00961 -0.166175,0.0036 -0.183315,0.04548 -0.0133,0.032468 -0.04854,0.050258 -0.07834,0.039532 -0.03219,-0.01158 -0.07116,0.026138 -0.09599,0.092957 -0.0508,0.1366438 -0.204262,0.1668746 -0.436021,0.085899 -0.12491,-0.043643 -0.170239,-0.045068 -0.242005,0.056925 -0.0734,0.1113445 -0.261374,-0.074955 -0.269451,-0.2108457 -0.0241,-0.4056837 0.09569,0.058177 0.04895,-0.7206678 M 11.67897,9.6776503 C 11.317857,9.5774024 11.320296,9.5926222 10.739598,9.5556539 l -0.125526,-0.00667 -0.02912,-0.32949 c -0.01601,-0.1811968 -0.04897,-0.3480881 -0.07325,-0.3708469 -0.02427,-0.022758 -0.04414,-0.074211 -0.04414,-0.1143375 0,-0.040126 -0.01413,-0.064854 -0.0314,-0.05495 -0.01726,0.00991 -0.03677,-0.06411 -0.04334,-0.1644773 -0.0066,-0.1003661 -0.01599,-0.2266359 -0.02093,-0.2805986 l -0.009,-0.098104 h 0.586065 c 0.322338,0 0.605011,0.011825 0.628163,0.026278 0.02315,0.014452 0.242495,0.032114 0.487426,0.039245 0.244932,0.00714 0.436804,0.026212 0.42638,0.0424 -0.01046,0.016187 0.003,0.029434 0.02986,0.029434 0.02685,0 0.03797,0.026492 0.02472,0.058868 0.26013,0.3039842 -0.120744,0.2088592 -0.157061,0.964211 -9.6e-4,0.163371 -0.01759,0.3208957 -0.03682,0.3500556 -0.0395,0.059933 -0.391053,0.07613 -0.672605,0.03099 z M 1.2666318,9.7896844 C 1.2522211,9.7761747 1.0644481,9.7564482 0.84936254,9.745856 0.05983249,9.7069618 0.12109772,9.7186025 0.14311546,9.6116519 0.15395482,9.5589892 0.16078097,9.4408447 0.1582807,9.3491084 0.13607892,8.534316 0.13949693,8.3912853 0.18233405,8.3428965 0.21275937,8.3085243 0.37969719,8.2797013 0.65388952,8.2614768 1.0998688,8.231834 1.2030897,8.2122065 1.1707754,8.1631888 c -0.019897,-0.030186 0.3017217,-0.017961 0.4651153,0.017677 0.1221777,0.026649 0.13531,0.1037832 0.094267,0.5537086 -0.022762,0.2495118 -0.020219,0.4327428 0.0071,0.5112894 0.043312,0.124551 -0.0011,0.4242696 -0.072117,0.4865923 -0.047643,0.04182 -0.3661582,0.087559 -0.3985073,0.057233 z M 2.5723215,9.7526494 C 2.468714,9.7303595 2.3556868,9.694907 2.3211507,9.6738621 2.2866172,9.6528171 2.2270603,9.6404196 2.1888079,9.6463071 2.0885844,9.6617421 2.0695843,9.6121522 2.0649583,9.3230766 2.0626863,9.18127 2.0478623,9.0727612 2.0320111,9.081946 2.0161601,9.091126 1.9758331,9.080496 1.9423951,9.058288 1.8922901,9.025025 1.8941031,9.02168 1.9527151,9.039252 1.9991391,9.05317 2.0328221,9.034022 2.0497251,8.984086 2.0751671,8.908935 2.1124941,8.89295 2.2374253,8.903702 2.2719603,8.906662 2.2531233,8.882903 2.1955633,8.850874 2.1380033,8.818847 2.1144563,8.792017 2.1432363,8.79125 2.1744423,8.790425 2.1601103,8.756625 2.1077423,8.707527 2.0427923,8.646636 2.0271143,8.5980888 2.0475403,8.5211109 c 0.015192,-0.057246 0.034092,-0.1539227 0.041999,-0.2148365 0.00791,-0.060914 0.021273,-0.1172149 0.029698,-0.1251136 0.00843,-0.0079 0.2974843,-0.023589 0.6423543,-0.034868 L 3.388627,8.1257856 3.380977,8.3498969 C 3.376757,8.473158 3.362615,8.6766749 3.349528,8.8021567 3.336437,8.9276383 3.341868,9.0600918 3.361597,9.0964977 3.381963,9.1340812 3.379031,9.2941515 3.354817,9.4668431 3.322307,9.6987416 3.296392,9.7718695 3.2457476,9.7746677 c -0.332614,0.01839 -0.5130079,0.012488 -0.6734218,-0.02202 z m 1.2558561,0.029115 C 3.70717,9.7388308 3.6863523,9.6282876 3.6733968,8.9598808 3.6603996,8.2893704 3.6608425,8.2855614 3.7655357,8.168919 3.8734743,8.0486585 3.9830001,8.0390791 4.1171691,8.1381639 c 0.0332,0.024517 0.2378032,0.044602 0.470433,0.046178 0.2264243,0.00153 0.4230585,0.013457 0.4369646,0.026492 0.013905,0.013037 0.02715,0.3345006 0.029429,0.7143641 0.00343,0.5674568 -0.00714,0.7012359 -0.059091,0.7499462 C 4.9384957,9.728027 4.9184207,9.727952 4.809005,9.6744523 4.6695209,9.6062623 4.5560406,9.5969052 4.5205947,9.6506698 4.4917567,9.6944173 4.0782771,9.8115387 3.9682507,9.8071272 3.9257457,9.8054022 3.8627131,9.7940022 3.8281771,9.7817472 Z m 2.5954351,-0.01179 C 6.3430284,9.7518237 6.064519,9.7321865 5.8047023,9.7263418 L 5.3323092,9.7157189 5.3631462,9.5961886 c 0.016958,-0.06574 0.022323,-0.2431521 0.011916,-0.3942472 -0.028642,-0.4158257 -0.010132,-0.802403 0.041208,-0.8603918 0.028242,-0.031904 0.1946175,-0.062165 0.4324371,-0.078653 0.4695706,-0.032557 0.5328676,-0.048335 0.53369,-0.1330396 3.692e-4,-0.038046 0.013678,-0.049219 0.031396,-0.026358 0.016916,0.021823 0.1242485,0.044858 0.2385175,0.051191 0.1142694,0.00634 0.2301494,0.028933 0.2575122,0.050222 0.07891,0.061396 0.05426,1.4302535 -0.02707,1.5031369 -0.083664,0.074977 -0.2822796,0.1017655 -0.4591379,0.061927 z m 2.687703,-1.6974678 c -0.021296,7.8e-4 -0.038968,0.00433 -0.050008,0.010732 -0.029432,0.017053 -0.2347092,0.034282 -0.4560929,0.038326 -0.8282688,0.015128 -1.2139048,0.032934 -1.2569461,0.057872 -0.024386,0.01413 -0.043575,0.064542 -0.042652,0.1120387 9.44e-4,0.047496 -0.010908,0.1345459 -0.0263,0.1935447 -0.015397,0.058999 -0.018822,0.1296664 -0.00764,0.1570076 0.01119,0.02734 0.018088,0.060202 0.01526,0.073074 -0.00285,0.012872 0.020308,0.052162 0.051373,0.087254 0.047811,0.054008 0.046176,0.073476 -0.010496,0.1266025 -0.036823,0.034521 -0.067044,0.078619 -0.067044,0.097986 0,0.019367 -0.032884,0.026369 -0.073176,0.015588 -0.047183,-0.012628 -0.042399,-0.00416 0.013494,0.023763 0.071609,0.035777 0.088038,0.08448 0.093753,0.2788832 0.00805,0.2739971 0.022855,0.307342 0.1259126,0.2820767 0.041878,-0.010267 0.1006914,0.00905 0.1306822,0.042922 0.029994,0.033878 0.1041165,0.06288 0.1646127,0.064388 0.060497,0.0015 0.1425839,0.014715 0.1824644,0.029385 0.100468,0.036968 1.0462668,0.033698 1.1080043,-0.00382 0.05152,-0.03132 0.2289805,-0.013853 0.3046972,0.030022 0.010776,0.00623 0.01948,-0.031305 0.026024,-0.110378 h 0.1259134 c 0.079224,0 0.1558742,-0.017918 0.1703358,-0.039855 0.014456,-0.021938 0.04384,-0.029663 0.065272,-0.017243 0.021432,0.01242 0.038976,0.00382 0.038976,-0.019035 0,-0.06003 0.1269071,-0.05067 0.2715847,0.020055 0.116362,0.05688 0.129619,0.056078 0.188869,-0.012525 0.05169,-0.059828 0.06296,-0.1975135 0.06024,-0.7293413 -0.0022,-0.4212618 -0.01982,-0.6711329 -0.04946,-0.6989325 -0.02673,-0.02505 -0.2236852,-0.045383 -0.4679481,-0.048291 L 9.3507455,8.130009 V 8.1293663 L 9.2327332,8.0907812 C 9.1921892,8.0775305 9.1468102,8.0712062 9.1113165,8.072513 Z"
       sodipodi:nodetypes="cssccsccsssccsccccccscsssscsccssccccssccccsscsssccsscscsccccccsccccscccscccccsccccsssscsssssssccsscsccscssccccccsscssscscscscccccccscssccsscccccscccccssccccscscscsccssccscccccc" /></g></svg>
