<?xml version="1.0" encoding="UTF-8" standalone="no"?>
<!-- Created with Inkscape (http://www.inkscape.org/) -->

<svg
   width="75"
   height="75"
   viewBox="0 0 19.84375 19.84375"
   version="1.1"
   id="svg1"
   xml:space="preserve"
   inkscape:version="1.3.2 (091e20e, 2023-11-25, custom)"
   sodipodi:docname="elbow.svg"
   xmlns:inkscape="http://www.inkscape.org/namespaces/inkscape"
   xmlns:sodipodi="http://sodipodi.sourceforge.net/DTD/sodipodi-0.dtd"
   xmlns="http://www.w3.org/2000/svg"
   xmlns:svg="http://www.w3.org/2000/svg"><sodipodi:namedview
     id="namedview1"
     pagecolor="#ffffff"
     bordercolor="#000000"
     borderopacity="0.25"
     inkscape:showpageshadow="2"
     inkscape:pageopacity="0.0"
     inkscape:pagecheckerboard="0"
     inkscape:deskcolor="#d1d1d1"
     inkscape:document-units="px"
     inkscape:zoom="2.609912"
     inkscape:cx="9.9620218"
     inkscape:cy="36.208118"
     inkscape:window-width="2560"
     inkscape:window-height="1009"
     inkscape:window-x="-8"
     inkscape:window-y="-8"
     inkscape:window-maximized="1"
     inkscape:current-layer="layer1" /><defs
     id="defs1"><inkscape:path-effect
       effect="bend_path"
       id="path-effect133"
       is_visible="true"
       lpeversion="1"
       bendpath="M 0.20612487,9.0327504 C 6.1304422,8.920147 10.437434,11.778153 10.831159,19.84375"
       prop_scale="1"
       scale_y_rel="false"
       vertical="false"
       hide_knot="false"
       bendpath-nodetypes="cc" /><inkscape:path-effect
       effect="bend_path"
       id="path-effect132"
       is_visible="true"
       lpeversion="1"
       bendpath="M 0.23073594,10.891006 C 6.9166643,11.347834 9.0668197,15.066307 8.7380239,19.843752"
       prop_scale="1"
       scale_y_rel="false"
       vertical="false"
       hide_knot="false"
       bendpath-nodetypes="cc" /><inkscape:path-effect
       effect="bend_path"
       id="path-effect131"
       is_visible="true"
       lpeversion="1"
       bendpath="M 0.18043366,7.3092125 C 5.1546222,7.3177215 13.044196,9.2521518 12.265471,19.84375"
       prop_scale="1"
       scale_y_rel="false"
       vertical="false"
       hide_knot="false"
       bendpath-nodetypes="cc" /><inkscape:path-effect
       effect="bend_path"
       id="path-effect129"
       is_visible="true"
       lpeversion="1"
       bendpath="M 0.23006514,7.6440955 C 4.0769265,7.5429364 12.041902,8.5674039 12.053393,19.912786"
       prop_scale="1"
       scale_y_rel="false"
       vertical="false"
       hide_knot="false"
       bendpath-nodetypes="cc" /></defs><g
     inkscape:label="Layer 1"
     inkscape:groupmode="layer"
     id="layer1"><path
       style="fill:#404040;fill-opacity:1;stroke-width:1.5875;stroke-miterlimit:23.6"
       d="m 0,11.90625 c 0.95453666,-0.09776 1.6836487,0.149976 2.2740558,0.197482 0.6223456,0.05008 0.097916,0.454292 1.819932,0.7055 0.9648752,0.140756 0.9058499,0.36947 1.770449,0.969558 1.1141569,0.773298 1.9226992,2.971664 2.0614427,3.824316 0.094534,0.580961 -0.01686,0.772804 0.011621,2.240644 h 3.9687505 c -0.01469,-0.606913 0.07583,-0.798559 -0.01093,-1.392386 -0.05944,-0.406803 -0.207888,-0.167835 -0.300347,-0.570371 C 11.374109,16.919411 11.355433,15.467798 10.98526,14.523129 10.75099,13.925279 10.260974,13.206538 9.9570258,12.695102 8.9211001,10.952011 7.76354,9.9047342 6.5178024,9.4531197 4.2589177,8.6342113 4.402565,8.3302271 1.9687893,8.1130328 1.4030462,8.0625449 0.60265598,7.9369027 0,7.9375 Z"
       id="path133"
       sodipodi:nodetypes="cssssccsssssscc" /><path
       id="path127"
       style="fill:#808080;stroke-width:0.999999;fill-opacity:1"
       d="m 8.0972059,19.693819 c -0.012131,0.01291 -0.1443725,-0.05747 -0.1295125,-0.08651 0.058659,-0.465019 0.094406,-0.937795 0.099207,-1.410074 5.41e-4,-0.04699 0.3013031,0.02635 0.4233651,-0.03184 0.063563,-0.03031 0.1532032,-0.03554 0.273057,-0.01363 0.1351721,0.02476 0.1826175,0.02173 0.1956343,-0.01507 0.023854,-0.06742 0.1589543,-0.07228 0.2595619,-0.0052 0.046169,0.03079 0.127493,0.05373 0.1801608,0.05022 0.2111793,-0.01409 0.3251708,0.242842 0.2326259,0.581832 -0.027742,0.101582 -0.051996,0.350571 -0.054662,0.530416 -0.006,0.410807 -0.055215,0.457498 -0.2963584,0.41337 -0.1010936,-0.0185 -0.1997724,-0.02261 -0.2188804,-0.0097 -0.021784,0.01471 -0.4431153,0.06983 -0.5597862,0.05629 m 0.8406012,-2.831594 c -0.015258,0.09408 0.00807,0.206253 0.066705,0.330801 0.066336,0.140691 0.07764,0.232111 0.045638,0.347569 -0.023746,0.08559 -0.024668,0.175693 -8.351e-4,0.200735 0.025679,0.02697 0.019358,0.03672 -0.014432,0.02404 -0.031851,-0.01195 -0.066836,0.01915 -0.078173,0.06848 -0.017845,0.07762 -0.046082,0.08696 -0.1999397,0.0735 -0.09972,-0.0087 -0.2972032,-0.0078 -0.444752,0.0017 -0.2611479,0.01672 -0.7328488,0.01729 -0.8956136,0.0031 -0.07495,-0.0065 -0.097131,-0.04791 -0.1146749,-0.199258 -0.012118,-0.10454 -0.00147,-0.203208 0.025629,-0.219386 0.061524,-0.03672 0.011259,-0.364558 -0.1007568,-0.594558 -0.043438,-0.08921 -0.068062,-0.186523 -0.053167,-0.217365 0.015134,-0.03132 -0.018276,-0.11459 -0.075224,-0.183205 C 7.3445098,16.367875 7.2398186,16.14908 7.3292397,16.16363 c 7.9e-6,9e-6 1.57e-5,1.8e-5 2.36e-5,2.7e-5 0.055075,0.009 0.083685,-0.0242 0.1096471,-0.136986 0.05093,-0.221177 0.029762,-0.325566 -0.074359,-0.439801 -0.1443053,-0.158325 -0.1310782,-0.202616 0.1520233,-0.307265 0.1600869,-0.05918 0.2333555,-0.09955 0.2214152,-0.124237 -0.0098,-0.02026 -0.050712,-0.02062 -0.090777,-8.97e-4 -0.040158,0.01977 -0.067027,0.01461 -0.060209,-0.01118 0.011226,-0.04246 -0.1563238,0.02029 -0.3604366,0.131618 -0.039164,0.02131 -0.05746,0.0091 -0.053015,-0.03414 0.016307,-0.158411 -0.333789,-0.774841 -0.5947776,-1.042693 -0.044103,-0.04894 -0.079165,-0.08002 -0.097558,-0.08649 -0.079195,-0.02784 -0.081191,-0.0334 0.014312,-0.06662 0.074835,-0.02603 0.095461,-0.01762 0.073574,0.02771 -0.01613,0.03341 0.1006729,-0.05544 0.2625913,-0.202031 0.1620651,-0.146726 0.3440611,-0.293865 0.4109555,-0.329574 0.064294,-0.03441 0.09123,-0.05266 0.053916,-0.03833 -0.096374,0.03706 -0.1134221,-0.0071 -0.03142,-0.08865 0.039424,-0.03922 0.099114,-0.06001 0.1333223,-0.04557 0.033797,0.01427 0.095122,-0.0019 0.1356449,-0.03647 0.051717,-0.04413 0.1060402,-0.06857 0.1618255,-0.0736 0,0 1e-7,0 1e-7,0 0.1603412,-0.01232 0.3312005,0.14838 0.4277873,0.447197 0.033955,0.105046 0.1340896,0.289836 0.2128402,0.395547 0.083529,0.112127 0.1638531,0.263589 0.1863584,0.345169 0.013168,0.04778 0.025821,0.09555 0.037966,0.143304 -0.1248359,0.05964 -0.2495831,0.119455 -0.3742412,0.179445 -0.2056768,0.099 -0.37843,0.201251 -0.3844251,0.226447 -0.00596,0.02514 0.011167,0.03467 0.038307,0.02111 0.027118,-0.01354 0.0538,-0.0027 0.05903,0.0243 0.00707,0.0364 0.1007139,0.0025 0.3655524,-0.133798 0.4032607,-0.207546 0.4560696,-0.205474 0.5335255,0.125938 0.066735,0.285511 0.2435857,0.809862 0.2920539,0.794658 0.023941,-0.0075 0.024287,0.0233 -5.11e-5,0.06824 -0.024266,0.04483 -0.026653,0.08847 -0.00484,0.09751 0.021841,0.0091 0.027978,0.04578 0.086217,0.342206 0.1637319,0.377758 0.1849343,0.495355 0.1701371,0.586576 2.01e-5,1.1e-5 4.02e-5,2.1e-5 6.03e-5,3.2e-5 z M 3.3270352,12.501087 c -0.028242,-0.03437 -0.047662,-0.10207 -0.04252,-0.149903 0.010909,-0.101462 0.1260121,-0.614824 0.171359,-0.757339 0.034489,-0.108349 0.3294699,-0.910348 0.3583936,-0.970997 0.018466,-0.03868 0.2628837,0.153558 0.2932225,0.225368 0.022196,0.05254 0.098512,0.103053 0.2011744,0.135413 0.091193,0.0287 0.1704942,0.07144 0.1770751,0.09348 0.016529,0.0554 -0.1317722,0.411684 -0.3954252,0.977808 -0.1724469,0.370282 -0.2400031,0.491569 -0.3011076,0.530366 -0.090428,0.05742 -0.3899698,0.0037 -0.4621756,-0.0842 1.2e-6,1e-6 2.4e-6,2e-6 3.6e-6,4e-6 z M 0.16611426,11.737748 c -0.0549613,-0.02823 -0.0707429,-0.09229 -0.0447327,-0.18629 0.007028,-0.02541 0.0367951,-0.378686 0.0663741,-0.785136 0.0296085,-0.406448 0.0669663,-0.753783 0.0828686,-0.7717657 0.0479116,-0.054185 0.3669695,8.154e-4 0.39514969,0.069883 0.0140711,0.03449 0.0353995,0.153789 0.0473905,0.26696 0.0119301,0.112617 0.0344844,0.218042 0.0503408,0.233622 0.0375104,0.03686 0.0404754,0.03804 -0.0153947,-0.26715 -0.0266719,-0.145679 -0.0490391,-0.270159 -0.0484177,-0.27702 0.004738,-0.052303 0.19216098,0.0193 0.20310621,0.0763 0.007715,0.04008 0.0330707,0.07475 0.056363,0.07703 0.0670976,0.0066 0.19566102,0.441894 0.20062562,0.686871 0.00245,0.120894 0.018695,0.30438 0.03519,0.400242 0.024419,0.141891 0.017417,0.210969 -0.030711,0.344975 -0.033105,0.09217 -0.07791,0.165213 -0.1001066,0.162308 -0.022401,-0.0029 -0.0873728,0.0018 -0.14504911,0.01072 -0.0832313,0.01293 -0.1056041,-0.0015 -0.1108957,-0.07317 -0.005915,-0.07993 -0.008172,-0.08037 -0.0193849,-0.0073 -0.00699,0.04528 -0.0314536,0.08075 -0.0544746,0.07888 -0.025052,-0.002 -0.14588092,-0.0063 -0.27713555,-0.0084 -0.12888849,-0.002 -0.2602885,-0.01567 -0.29110032,-0.03159 -1.89e-6,1.8e-5 -3.79e-6,3.5e-5 -5.68e-6,5.3e-5 z m 1.57729364,-0.30505 c 0.019394,-0.106944 0.065979,-0.223896 0.1068533,-0.266859 0.067726,-0.07119 0.069137,-0.07841 0.010242,-0.111142 -0.050038,-0.0278 -0.055328,-0.07446 -0.024983,-0.231426 0.022316,-0.115549 0.062971,-0.211325 0.098959,-0.232244 0.053476,-0.03108 0.05573,-0.04238 0.014786,-0.09283 -0.071447,-0.08803 0.093831,-0.189209 0.240283,-0.139711 0.062807,0.02129 0.1098425,0.02273 0.1044495,0.0027 -0.00536,-0.02005 0.047378,-0.04135 0.1176952,-0.04652 0.1110077,-0.0082 0.1202262,-0.01514 0.061175,-0.06128 -0.051036,-0.03986 -0.036108,-0.04714 0.073204,-0.02664 0.1345524,0.02527 0.2781273,0.182601 0.2276811,0.244869 -0.012481,0.0154 0.02029,0.02749 0.072641,0.02732 0.052362,-1.01e-4 0.091412,-0.01808 0.086466,-0.04043 -0.011525,-0.05211 0.09456,-0.07494 0.2146235,-0.0432 0.081593,0.02157 0.086021,0.0393 0.039122,0.135095 -0.049311,0.100724 -0.044599,0.109442 0.045575,0.105889 0.082949,-0.0033 0.094961,0.01295 0.0726,0.09323 -0.014816,0.0532 -0.04394,0.09189 -0.064738,0.08608 -0.021408,-0.006 -0.032432,0.0179 -0.02562,0.05467 0.00666,0.03593 0.00821,0.08627 0.00362,0.112263 -0.00164,0.0092 -0.017321,0.09672 -0.018962,0.105954 -0.00589,0.03235 0.02165,0.06786 0.061043,0.07918 0.053642,0.01541 0.060222,0.04039 0.027407,0.09811 -0.024303,0.04276 -0.068135,0.213514 -0.098898,0.379894 -0.030727,0.166177 -0.063626,0.307875 -0.0721,0.315245 -0.039851,0.03466 -0.5341235,0.02186 -0.7536587,-0.01878 -0.1451085,-0.02683 -0.2815706,-0.03581 -0.3032343,-0.02286 -0.021299,0.01274 -0.094964,0.02729 -0.1627423,0.03264 -0.1230336,0.0097 -0.1837138,-0.06954 -0.2052154,-0.214409 -0.021699,-0.146209 0.025364,-0.217443 0.051718,-0.324869 4.2e-6,2.4e-5 8.4e-6,4.9e-5 1.26e-5,7.4e-5 z m 2.4432638,1.188649 c -0.045379,-0.04786 -0.047073,-0.08528 -0.00482,-0.163132 0.028761,-0.05294 0.1814987,-0.382963 0.3342108,-0.721254 0.1539394,-0.340993 0.29276,-0.640362 0.3078078,-0.665653 0.040069,-0.06733 0.149999,-0.01853 0.3031454,0.06883 0.3190419,0.182008 0.3389969,-0.03589 0.5947176,0.157258 0.1101674,0.08321 0.4427748,0.635901 0.3811995,0.654898 -0.019194,0.0059 -0.034581,0.04458 -0.034641,0.0857 -8.25e-5,0.04118 -0.013224,0.066 -0.028691,0.05558 -0.01554,-0.01047 -0.1696777,0.188782 -0.3420438,0.44302 -0.3824238,0.564073 -0.4254597,0.584947 -0.692946,0.444953 -0.095255,-0.04988 -0.1959187,-0.09648 -0.242383,-0.115041 -0.054741,-0.02185 -0.1604716,-0.06303 -0.2950091,-0.109655 -0.1200863,-0.0416 -0.2487945,-0.10209 -0.2804968,-0.135611 -1.53e-5,3.3e-5 -3.05e-5,6.5e-5 -4.57e-5,9.8e-5 z m 1.5118204,0.216613 c 0.06587,-0.105704 0.088573,-0.133937 0.169686,-0.134737 0.093909,-9.26e-4 0.09809,-0.0026 0.062611,-0.06594 -0.049008,-0.08753 0.1578897,-0.426369 0.2609499,-0.408765 0.055271,0.0094 0.063791,0.0014 0.047645,-0.05147 -0.031861,-0.104291 0.1128396,-0.133491 0.2942344,-0.04208 0.085988,0.04334 0.2014035,0.09185 0.2483555,0.102797 0.084888,0.01979 0.088229,0.02001 0.033353,-0.03384 -0.032279,-0.03166 -0.00357,-0.03287 0.074187,0.0014 0.071845,0.03165 0.1274221,0.07627 0.1237274,0.09764 -0.013357,0.07747 0.037877,0.286023 0.078263,0.321952 0.034916,0.03106 0.042023,0.02687 0.03273,-0.02428 -0.00859,-0.04728 0.00996,-0.05422 0.07538,-0.02359 0.1525732,0.07145 0.218919,0.161667 0.166754,0.213318 -0.027324,0.02705 -0.062857,0.03615 -0.07903,0.02035 -0.016238,-0.01587 -0.036457,-0.0061 -0.045141,0.02127 -0.00868,0.02738 0.023274,0.07017 0.070903,0.09583 0.064284,0.03464 0.072818,0.06071 0.034198,0.09729 -0.028862,0.02734 -0.074352,0.04633 -0.1006417,0.04238 -0.02646,-0.004 -0.057061,0.01901 -0.068436,0.05071 -0.011454,0.0319 -0.050774,0.08687 -0.087607,0.123009 -0.042298,0.04148 -0.050851,0.08936 -0.024064,0.131164 0.02863,0.04466 0.019253,0.07986 -0.027187,0.108369 -0.038113,0.0234 -0.1564999,0.14163 -0.2654354,0.262216 -0.1353971,0.149819 -0.2163001,0.218251 -0.2516101,0.219255 -0.071576,0.002 -0.415724,-0.23448 -0.6383642,-0.413945 -0.079064,-0.06374 -0.165345,-0.109445 -0.1906036,-0.104762 -0.024624,0.0046 -0.088271,-0.0071 -0.1401354,-0.02476 -0.076115,-0.02599 -0.092465,-0.05548 -0.086149,-0.153067 0.00433,-0.06678 0.018846,-0.141081 0.033259,-0.163688 0.1132139,-0.215822 0.033523,3.94e-4 0.1982284,-0.263959 -2.05e-5,-2e-5 -4.1e-5,-4e-5 -6.15e-5,-6e-5 z m -4.516536,-1.161972 c 0.022288,-0.05617 0.055684,-0.209653 0.073531,-0.339334 0.039281,-0.285489 -0.073551,-0.892295 -0.2346594,-1.191165 -0.10632566,-0.1972439 0.066849,-0.06962 0.2619986,-0.04794 0.1467653,0.01631 0.4732403,0.197497 0.4591037,0.288054 -0.00601,0.03848 0.00803,0.08395 0.03101,0.100966 0.028464,0.02109 0.023649,0.02938 -0.014072,0.02603 -0.046304,-0.0041 -0.07206,0.09227 -0.1495497,0.562896 -0.087592,0.532006 -0.09926,0.572365 -0.1851805,0.647272 -0.050201,0.04377 -0.1343232,0.07428 -0.1868504,0.06775 -0.085026,-0.01058 -0.091636,-0.02305 -0.055328,-0.114535 -8e-7,4e-6 -1.6e-6,8e-6 -2.4e-6,1.2e-5 z"
       inkscape:path-effect="#path-effect132"
       inkscape:original-d="m 19.074574,11.760609 c 0.01902,0.01131 -0.06875,0.147007 -0.112269,0.133133 l -2.003113,-0.115704 c -0.06643,-0.0039 0.06603,-0.295581 -7.32e-4,-0.420322 -0.03487,-0.06514 -0.032,-0.153714 0.0087,-0.270592 0.04591,-0.131667 0.04568,-0.178717 -9.3e-4,-0.194252 -0.08588,-0.02863 -0.0767,-0.16232 0.01763,-0.256651 0.04352,-0.04352 0.07914,-0.122015 0.07914,-0.174422 0,-0.210907 0.324542,-0.301829 0.737005,-0.206474 0.131451,0.0304 0.428929,0.05295 0.66106,0.05014 0.513103,-0.0063 0.579626,0.02776 0.539412,0.275556 -0.01653,0.10187 -0.01506,0.200221 0.0033,0.218556 0.01833,0.01833 0.127961,0.439636 0.119671,0.554466 M 15.495983,10.35912 c 0.111058,0.03251 0.2541,0.02937 0.417484,-0.0091 0.185172,-0.04369 0.295883,-0.04302 0.434216,0.0026 0.102121,0.0337 0.213545,0.04404 0.247613,0.02299 0.03633,-0.02246 0.04791,-0.01558 0.028,0.01663 -0.01866,0.0302 0.01552,0.06785 0.07597,0.08365 0.09462,0.02474 0.104361,0.05311 0.07007,0.203838 -0.02192,0.0963 -0.04409,0.293797 -0.04929,0.43888 -0.0096,0.267849 -0.06711,0.715726 -0.113493,0.883682 -0.02025,0.07331 -0.08388,0.09233 -0.308995,0.09233 -0.155923,0 -0.298168,-0.02374 -0.316102,-0.05275 -0.0388,-0.06279 -0.526908,-0.06416 -0.896871,-0.0025 -0.145083,0.02417 -0.296562,0.02601 -0.336622,0.0041 -0.04006,-0.02192 -0.174111,-0.0094 -0.297891,0.02787 -0.345823,0.104076 -0.72849,0.134576 -0.660489,0.05264 l 5.1e-5,-1.4e-5 c 0.04127,-0.04974 0.0058,-0.08689 -0.14277,-0.149449 -0.293498,-0.123604 -0.43908,-0.14385 -0.665728,-0.09258 -0.315776,0.07143 -0.363699,0.03139 -0.322346,-0.269284 0.02367,-0.172096 0.01629,-0.25662 -0.02241,-0.25662 -0.03175,0 -0.05771,0.03702 -0.05771,0.08225 0,0.04524 -0.02374,0.06757 -0.05275,0.04964 -0.04608,-0.02848 -0.07669,0.149767 -0.06633,0.386117 0.0019,0.04499 -0.0277,0.0563 -0.08402,0.032 -0.163242,-0.07046 -1.889697,-0.131983 -2.045154,-0.07288 -0.114132,0.04339 -0.119391,0.03872 -0.06121,-0.05446 0.04611,-0.07384 0.07497,-0.08433 0.104705,-0.03808 0.02258,0.03512 0.03566,-0.114213 0.02906,-0.331837 -0.0066,-0.217623 0.0051,-0.455031 0.02622,-0.527572 0.02102,-0.07255 0.02458,-0.102213 0.0079,-0.06595 -0.04508,0.09817 -0.103516,0.07977 -0.112178,-0.0353 -0.0042,-0.05569 0.02636,-0.114295 0.0679,-0.130237 0.04155,-0.01594 0.07554,-0.07267 0.07554,-0.126073 0,-0.267449 0.315482,-0.365181 0.792798,-0.245598 0.131366,0.03291 0.373609,0.04866 0.538316,0.035 0.164708,-0.01366 0.378936,-0.0099 0.476065,0.0083 l 0.176595,0.03313 -0.01296,0.420324 c -0.0071,0.231179 0.0095,0.434187 0.03688,0.451129 0.02742,0.01694 0.04985,0.0056 0.04985,-0.02507 0,-0.03073 0.02968,-0.04994 0.06594,-0.04268 0.04906,0.0098 0.06261,-0.09061 0.05292,-0.392178 -0.01492,-0.464823 0.01769,-0.49858 0.42311,-0.437785 0.35382,0.05305 1.040815,0.05687 1.040771,0.0058 -2.3e-5,-0.02531 0.03615,-0.016 0.08037,0.02071 0.04423,0.03671 0.09546,0.05169 0.113847,0.0333 0.01839,-0.01839 0.06319,-0.0088 0.437683,0.0089 0.514055,-0.06544 0.635705,-0.0728 0.755393,-0.03776 z M 4.8678569,12.135882 c -0.056032,-0.02415 -0.1135611,-0.08238 -0.1278497,-0.129412 -0.032696,-0.10763 -0.094008,-0.612182 -0.093402,-0.768689 3.863e-4,-0.09583 0.053289,-0.9775 0.061632,-1.026912 0.00651,-0.03844 0.3660139,0.05837 0.4328112,0.116562 0.047827,0.04167 0.1592439,0.0629 0.2935711,0.05595 0.119066,-0.0062 0.231081,0.0034 0.2489225,0.02123 0.04505,0.04505 0.043507,0.431848 -0.00423,1.056024 -0.031187,0.407776 -0.059346,0.546202 -0.1228065,0.603634 -0.097265,0.08803 -0.5430273,0.134379 -0.6886558,0.07161 z M 0.22276871,11.961796 c -0.0802356,-0.02354 -0.10776139,-0.08626 -0.0799545,-0.182184 0.007508,-0.02592 0.0168988,-0.380856 0.0208472,-0.788761 0.003988,-0.407905 0.0225557,-0.757008 0.0413355,-0.775785 0.0558938,-0.05589 0.46757624,-0.02004 0.50985844,0.0444 0.021486,0.03275 0.062628,0.15001 0.091428,0.260585 0.028798,0.110578 0.070961,0.212536 0.093687,0.226581 0.055369,0.03422 0.055056,0.03266 -0.052909,-0.262719 -0.051832,-0.141796 -0.094232,-0.263409 -0.094232,-0.270254 0,-0.05088 0.24434168,0.0026 0.26565825,0.05823 0.014917,0.03887 0.051507,0.07067 0.081318,0.07067 0.085718,0 0.3131323,0.413958 0.3590601,0.65359 0.022988,0.119932 0.073928,0.294437 0.1132069,0.387788 0.057151,0.135818 0.060873,0.204064 0.018667,0.341592 -0.02901,0.09452 -0.078343,0.171864 -0.1096264,0.171864 -0.031285,0 -0.1211488,0.01286 -0.199699,0.02856 -0.1138388,0.02276 -0.1473872,0.01086 -0.1653307,-0.0589 -0.020023,-0.07779 -0.023115,-0.07835 -0.027974,-0.005 -0.00306,0.04535 -0.031969,0.08304 -0.064363,0.08376 -0.032394,7.19e-4 -0.20731125,0.01006 -0.38870825,0.02073 -0.1813979,0.01074 -0.36691788,0.0086 -0.41226658,-0.0048 z M 2.3404462,11.471257 c 0.00193,-0.106761 0.037805,-0.228449 0.08148,-0.27671 0.072849,-0.0805 0.072087,-0.08768 -0.011587,-0.109561 -0.071466,-0.01868 -0.088217,-0.06324 -0.082944,-0.220589 0.00385,-0.115736 0.035219,-0.215565 0.075887,-0.241709 0.0608,-0.03908 0.060627,-0.05042 -0.00139,-0.09255 -0.1091487,-0.07415 0.078397,-0.198151 0.2676132,-0.176941 0.082402,0.0093 0.1405235,0.0017 0.1291586,-0.01664 -0.01136,-0.01839 0.048429,-0.04876 0.1328739,-0.06749 0.134092,-0.02975 0.141604,-0.03876 0.059304,-0.0712 -0.072797,-0.02868 -0.054166,-0.0379 0.081914,-0.04045 0.1672328,-0.0031 0.3848713,0.115998 0.3411432,0.186752 -0.010845,0.01754 0.032401,0.02194 0.096097,0.0097 0.063699,-0.01217 0.1055844,-0.0387 0.093077,-0.05893 -0.029203,-0.04725 0.09225,-0.09378 0.2448211,-0.09378 0.103773,0 0.115213,0.01527 0.08918,0.118988 -0.027216,0.10843 -0.019305,0.116341 0.089124,0.08913 0.099061,-0.02487 0.1189886,-0.01322 0.1189886,0.06947 0,0.05464 -0.022456,0.09934 -0.049895,0.09934 -0.028174,0 -0.033843,0.02564 -0.013028,0.0589 0.020285,0.03239 0.039507,0.0801 0.04273,0.106007 0.0032,0.02592 0.00903,0.07362 0.013028,0.106007 0.00389,0.03239 0.051004,0.0589 0.1045787,0.0589 0.072774,0 0.090522,0.0217 0.07018,0.08579 -0.014971,0.04719 -0.00823,0.222107 0.014971,0.388709 0.023199,0.166603 0.035222,0.310552 0.026707,0.319889 -0.046809,0.05133 -0.7092631,0.156797 -1.0337876,0.164571 -0.2073113,0.005 -0.3982931,0.02254 -0.4244047,0.03904 -0.026112,0.0165 -0.1235592,0.04428 -0.2165523,0.06172 -0.1686907,0.03163 -0.2726867,-0.0356 -0.3354512,-0.172513 -0.062907,-0.137227 -0.014871,-0.216505 -0.00385,-0.32392 z m 3.7836244,0.477837 c -0.090671,-0.02619 -0.1143646,-0.06047 -0.1029102,-0.148871 0.00823,-0.06316 0.020388,-0.422276 0.027119,-0.798028 0.00674,-0.375752 0.015942,-0.707215 0.020456,-0.736584 0.012068,-0.07844 0.1593936,-0.07796 0.3746273,-0.06632 0.4490711,0.0243 0.3480226,-0.181531 0.7302598,-0.139425 0.1646723,0.01814 0.8685755,0.312043 0.8176415,0.362979 -0.015862,0.01586 -0.00526,0.05729 0.023633,0.09206 0.028867,0.03478 0.032924,0.06323 0.00903,0.06323 -0.023896,0 -0.046935,0.255711 -0.051187,0.568246 -0.00937,0.688762 -0.04513,0.742241 -0.5058552,0.756814 -0.1554829,0.0049 -0.3379259,0.01302 -0.4054283,0.01801 -0.067506,0.005 -0.2795259,0.02095 -0.4711617,0.03548 -0.191638,0.01454 -0.4014364,0.01108 -0.4662213,-0.0077 z M 8.2111,11.399508 c -0.00937,-0.126937 -0.00526,-0.163051 0.085619,-0.211686 0.1055729,-0.0565 0.1063386,-0.0605 0.017416,-0.09169 -0.1257389,-0.04411 -0.152291,-0.447225 -0.03249,-0.493198 0.06482,-0.02487 0.066729,-0.03669 0.011474,-0.07084 -0.1110812,-0.06865 0.022571,-0.175399 0.26517,-0.211778 0.1192009,-0.01787 0.2616329,-0.05064 0.3165164,-0.07281 0.096305,-0.0389 0.096499,-0.04058 0.0056,-0.04812 -0.055563,-0.0046 -0.026787,-0.02367 0.070146,-0.04646 0.090408,-0.02126 0.1752192,-0.02315 0.1884644,-0.0042 0.049278,0.07043 0.259521,0.19384 0.3290439,0.193143 0.057426,-5.76e-4 0.059266,-0.0088 0.00914,-0.04058 -0.046958,-0.02977 -0.035039,-0.04731 0.047118,-0.06931 0.1908343,-0.0511 0.3220173,-0.03483 0.3220173,0.03994 0,0.03887 -0.02246,0.07067 -0.04989,0.07067 -0.02745,0 -0.03674,0.02128 -0.02067,0.04729 0.01608,0.02601 0.08093,0.03431 0.1441303,0.01844 0.08476,-0.02128 0.1149027,-0.0097 0.1149027,0.04416 0,0.04015 -0.02154,0.08632 -0.04788,0.10259 -0.02634,0.01627 -0.03243,0.0546 -0.01353,0.08517 0.01889,0.03057 0.03514,0.09802 0.03611,0.149871 0.0011,0.05976 0.03871,0.09956 0.10267,0.108682 0.0681,0.0097 0.09437,0.04036 0.08078,0.09424 -0.01108,0.04392 -0.0017,0.212642 0.02094,0.37495 0.02817,0.202356 0.02498,0.30785 -0.01006,0.33565 -0.08216,0.06507 -0.6741614,0.145428 -1.1348572,0.154041 -0.1554829,0.0029 -0.3038998,0.02119 -0.3298131,0.04063 -0.025908,0.01944 -0.1140411,0.04964 -0.1958241,0.06712 -0.1187472,0.02537 -0.1685864,0.0104 -0.2473604,-0.07412 -0.054261,-0.05824 -0.099996,-0.128395 -0.1016416,-0.155901 -0.045541,-0.246254 0.040295,-0.01918 0.016879,-0.33588 z m -6.5836002,0.391884 c 0.020668,-0.05831 0.038211,-0.212024 0.038995,-0.341594 0.00166,-0.276401 -0.2547932,-0.870534 -0.4927584,-1.141561 -0.1616972,-0.184162 0.075663,-0.07403 0.3214319,-0.07537 0.183047,-9.91e-4 0.6240301,0.133214 0.6240301,0.220496 0,0.0384 0.026504,0.08051 0.058893,0.09357 0.039906,0.0161 0.035871,0.02497 -0.012517,0.02748 -0.059198,0.0031 -0.072719,0.100694 -0.079044,0.57058 -0.00714,0.530784 -0.014591,0.572663 -0.1170505,0.658059 -0.060182,0.05016 -0.1702009,0.0919 -0.244486,0.09277 -0.1200067,0.0014 -0.1308757,-0.01029 -0.097493,-0.104442 z"
       sodipodi:nodetypes="ccccccssccscccccccccscscccccccsssssccscssccccsssccccscccscsccccscccccscccccccccscscssccscccsccccscccsccccccccsscsscccscsscscscccccccsscssccccccsccscscccsssssccsscccscccccccccccscscccsccc" /><path
       id="path6"
       style="fill:#808080;stroke-width:0.999999;fill-opacity:1"
       d="m 9.8648061,19.410765 c -0.011182,-0.135963 -0.030964,-0.178237 -0.078548,-0.1744 -0.034703,0.0028 -0.064507,-0.01032 -0.066245,-0.02908 -0.00174,-0.01877 0.026072,-0.02742 0.061833,-0.01911 0.04614,0.01074 0.063416,-0.009 0.059166,-0.06865 -0.028517,-0.39945 -0.036797,-0.76388 -0.00527,-0.805599 -0.00507,-0.113906 0.2570946,-0.116932 0.3906686,-0.103472 0.04838,0.01097 0.168097,0.01092 0.265104,-3.12e-4 0.09726,-0.01137 0.188617,-0.0075 0.203203,0.0086 0.01444,0.01589 0.1277,0.02576 0.25134,0.02199 0.248845,-0.04429 0.344319,0.01348 0.539871,0.02257 0.0648,0.0051 0.138179,0.01249 0.164892,0.01656 0.06144,0.0094 0.123334,0.268738 0.160131,0.839001 0.184656,0.691336 -0.03393,0.522611 -0.433627,0.556597 -0.05325,0.02542 -0.160146,0.03219 -0.238666,0.03304 -0.375989,0.0041 0.01301,0.04979 -0.35549,0.04291 -0.0673,-0.0011 -0.182637,-0.0011 -0.494966,-0.05672 -0.4078033,-0.106635 -0.4086195,-0.104339 -0.4233896,-0.283923 -1.1e-6,1.3e-5 -2.2e-6,2.5e-5 -3.3e-6,3.7e-5 z M 10.072904,15.21602 c -0.07164,-0.0082 -0.1266661,-0.03295 -0.1524571,-0.02393 -0.025683,0.009 -0.1064822,0.0121 -0.1788685,0.0075 -0.1979986,-0.01255 -0.3663458,0.01918 -0.3514408,0.06127 0.017307,0.04887 -0.2030792,0.04933 -0.3167597,0.0037 -0.090537,-0.03636 -0.058552,-0.04051 -0.3276428,-0.773068 -0.060345,-0.164275 -0.114183,-0.325373 -0.095528,-0.354302 0.052302,-0.08111 -0.033385,-0.11984 0.3268924,-0.191183 0.119018,-0.05121 0.6988302,-0.247173 0.9530621,-0.320276 0.1167189,-0.09061 0.061689,-0.113283 0.3080069,-0.07522 0.104415,-0.02668 0.131943,-0.01448 0.180236,0.08317 0.0439,0.08874 0.155263,0.313041 0.28766,0.62022 0.230444,0.534619 0.212111,0.62425 0.05565,0.615099 -0.06791,-0.004 -0.169922,0.03328 -0.434446,0.153349 -0.212735,0.09658 -0.219746,0.101088 -0.224238,0.161961 m 0.537662,0.08439 c 0.104476,-0.0032 0.207643,0.0017 0.23022,0.01024 0.12773,0.0484 0.431703,1.086458 0.508126,2.185344 0.01577,0.22679 0.03629,0.434689 0.05104,0.460392 0.01506,0.02625 0.0085,0.04013 -0.01441,0.03097 -0.02293,-0.0092 -0.0513,0.0031 -0.0631,0.02694 -0.01181,0.02395 -0.04047,0.03587 -0.06365,0.02662 -0.120344,0.0019 -0.24068,0.0042 -0.361006,0.0066 -0.115023,0.01287 -0.308606,0.01728 -0.42679,0.01025 -0.120735,-0.0072 -0.310511,-0.0087 -0.429596,-0.0036 -0.1172252,0.005 -0.2254281,-0.0025 -0.2400961,-0.0166 -0.014651,-0.01411 -0.034632,-0.174847 -0.047831,-0.356251 -0.013243,-0.181913 -0.039044,-0.340883 -0.053933,-0.354673 -0.014697,-0.01362 0.00243,-0.03044 0.038175,-0.03742 0.052467,-0.01023 0.057543,-0.06242 0.017841,-0.26856 -0.025401,-0.131805 -0.059439,-0.324282 -0.067787,-0.390133 -0.012195,-0.09621 -0.037317,-0.136787 -0.084416,-0.1398 -0.036633,-0.0024 -0.062379,-0.02652 -0.057391,-0.05378 0.0054,-0.02956 -0.042129,-0.05118 -0.1168245,-0.05288 -0.1535605,-0.0035 -0.214672,-0.117246 -0.1843573,-0.325109 0.016376,-0.112288 0.00635,-0.14965 -0.1148035,-0.173134 -0.126884,-0.02107 0.00933,-0.228 0.1478162,-0.281562 0.5903301,-0.228308 0.1539546,0.02499 0.7442842,-0.203323 M 8.3031327,13.44014 c -0.056524,-0.261573 -0.091013,-0.326982 -0.3262844,-0.685153 -0.018825,-0.02782 -0.037848,-0.05552 -0.057072,-0.08309 0.085194,-0.07809 0.1701686,-0.156459 0.2549226,-0.235109 0.1401966,-0.130094 0.2577681,-0.261921 0.2628674,-0.294261 0.00498,-0.03155 0.035569,-0.07974 0.06802,-0.106533 0.032487,-0.02682 0.04454,-0.05322 0.026557,-0.05855 -0.01791,-0.0053 0.030562,-0.06867 0.1075381,-0.141143 0.078916,-0.07434 0.1709884,-0.162856 0.2132815,-0.204941 0.024466,-0.02435 0.048912,-0.04873 0.073336,-0.07314 0.1203749,0.14425 0.2360327,0.291473 0.3471188,0.441434 0.1839093,0.248268 0.3192521,0.479004 0.318512,0.506362 -6.947e-4,0.0257 0.097496,0.211381 0.2077763,0.412911 0.1109741,0.202826 0.1775405,0.371052 0.1580578,0.370496 -0.0197,-5.93e-4 -0.025945,0.01709 -0.0141,0.03917 0.011891,0.02216 -0.00799,0.04425 -0.043905,0.04931 -0.1693049,0.362631 -0.2478015,0.0038 -0.9595653,0.358123 -0.150789,0.08148 -0.3035049,0.149348 -0.3372329,0.150556 -0.068286,0.0025 -0.221212,-0.234704 -0.2998128,-0.4464 -5.2e-6,-1.2e-5 -1.04e-5,-2.4e-5 -1.55e-5,-3.7e-5 z M 1.0875217,9.965918 C 1.0759412,9.9506992 0.92002458,9.9225126 0.73954926,9.906988 0.07820911,9.8500851 0.12885032,9.8751516 0.14469933,9.760951 c 0.007773,-0.056023 0.0107325,-0.1824137 0.006339,-0.2799229 -0.0390969,-0.8678501 -0.0408523,-1.020078 -0.002667,-1.0728022 0.0271215,-0.037452 0.17990538,-0.073818 0.43450038,-0.093774 0.41410383,-0.032459 0.51315498,-0.045146 0.48462808,-0.098693 -0.017565,-0.032975 0.2848836,-0.00891 0.4360826,0.038593 0.1130591,0.035525 0.1180989,0.1195961 0.048056,0.6004435 -0.038757,0.2660634 -0.049115,0.4643029 -0.031285,0.5497077 0.028338,0.135772 -0.033199,0.4562982 -0.096263,0.518578 -0.04235,0.041834 -0.3117949,0.075397 -0.3365686,0.042841 0,0 -1.2e-6,-4.1e-6 -1.2e-6,-4.1e-6 z m 1.0904523,0.049457 c -0.0823,-0.033994 -0.1732337,-0.082755 -0.1993688,-0.1080039 -0.026534,-0.025635 -0.07508,-0.04398 -0.1078899,-0.040788 -0.085505,0.00833 -0.096791,-0.04584 -0.073071,-0.3565963 0.011626,-0.1523444 0.00893,-0.2699509 -0.00586,-0.2613107 -0.014778,0.00862 -0.049231,-0.00583 -0.076743,-0.032062 -0.040877,-0.038968 -0.039918,-0.043052 0.010773,-0.019691 0.039697,0.018294 0.071105,3.91e-4 0.090818,-0.051896 0.029659,-0.078657 0.064754,-0.093188 0.1748334,-0.070491 0.030202,0.00622 0.016529,-0.020841 -0.031744,-0.06034 -0.048025,-0.039294 -0.066852,-0.07007 -0.040768,-0.068446 0.027974,0.00175 0.018944,-0.035688 -0.023632,-0.09279 -0.052734,-0.070723 -0.062841,-0.1239865 -0.036819,-0.2049515 0.019145,-0.059564 0.046299,-0.1630387 0.05947,-0.2270712 0.013318,-0.064731 0.03138,-0.1239121 0.040128,-0.1316882 0.0088,-0.00782 0.2822074,-6.08e-4 0.6086513,0.031998 0.19763,0.01974 0.3951869,0.043939 0.5923615,0.072817 -0.016643,0.078562 -0.033243,0.1571351 -0.049801,0.2357192 -0.026852,0.1273907 -0.079335,0.3448627 -0.113911,0.4733477 -0.035129,0.1305261 -0.054986,0.2720218 -0.04486,0.3133336 0.010585,0.04319 -0.022739,0.2114131 -0.075581,0.3908428 -0.070859,0.2406225 -0.104991,0.3145465 -0.1468045,0.3106695 -0.2785134,-0.02581 -0.4182177,-0.0481 -0.5501749,-0.102604 -1.2e-6,10e-7 -2.5e-6,10e-7 -3.7e-6,2e-6 z m 1.0202736,0.197967 c -0.087587,-0.06525 -0.080747,-0.184053 0.05005,-0.8897682 0.1311083,-0.7074029 0.130784,-0.7123571 0.2537176,-0.8140799 0.1265626,-0.1047275 0.233557,-0.091214 0.3333983,0.042244 0.024449,0.03268 0.2090456,0.099881 0.4205565,0.1614409 0.2068575,0.060199 0.3801532,0.1294683 0.3886356,0.1470086 0.00835,0.017272 -0.08364,0.3471017 -0.2046499,0.73283 -0.1807487,0.5762243 -0.2326755,0.7090203 -0.2886923,0.7460883 -0.060821,0.04024 -0.07553,0.03551 -0.1452424,-0.04406 -0.089126,-0.101703 -0.17797,-0.135415 -0.2210945,-0.08758 -0.032089,0.0356 -0.3980756,0.07888 -0.4803944,0.05632 -0.033291,-0.0091 -0.081446,-0.03196 -0.1062808,-0.05046 -1.1e-6,6e-6 -2.3e-6,1.2e-5 -3.4e-6,1.8e-5 z m 1.9880522,0.623687 c -0.05277,-0.0465 -0.2390457,-0.150642 -0.4348764,-0.233164 -0.1161649,-0.04895 -0.2339191,-0.09554 -0.3531146,-0.13983 0.021697,-0.03734 0.043493,-0.07462 0.065389,-0.111851 0.035852,-0.06096 0.1030961,-0.23814 0.1475664,-0.3919915 0.1232534,-0.4264169 0.2707069,-0.8064853 0.3382162,-0.8494139 0.036167,-0.023001 0.194358,-0.00117 0.4087174,0.066598 0.4232495,0.1338048 0.4824304,0.1532253 0.5204282,0.07227 0.017038,-0.036301 0.033629,-0.041762 0.038926,-0.012573 0.00501,0.027602 0.087983,0.093508 0.1826369,0.1478081 0.095344,0.054702 0.1819636,0.1265387 0.1947269,0.1588911 0.035786,0.090716 -0.6632896,1.3552334 -0.7540844,1.3931414 -0.094596,0.0395 -0.2462084,-0.0044 -0.3545309,-0.09988 -2e-7,-1e-6 -5e-7,-2e-6 -8e-7,-3e-6 z m 2.945753,-0.20853 c -0.016514,-0.01325 -0.0323,-0.02185 -0.045097,-0.02387 -0.032847,-0.0052 -0.201122,-0.124211 -0.3734046,-0.252662 C 7.0643128,9.8678997 6.7224392,9.7212993 6.6736399,9.7232137 c -0.027762,0.00109 -0.069999,0.037867 -0.094291,0.081667 -0.024129,0.043546 -0.079892,0.1177444 -0.1229618,0.1643796 -0.043222,0.046794 -0.082772,0.1099897 -0.088297,0.1399647 -0.00553,0.03003 -0.017422,0.06309 -0.026383,0.07359 -0.00896,0.01046 -0.011574,0.05672 -0.00636,0.102482 0.00805,0.07064 -0.00422,0.08711 -0.075002,0.110608 -0.046141,0.01532 -0.091752,0.04261 -0.1019037,0.06039 -0.010127,0.01773 -0.038301,0.01005 -0.062938,-0.01676 -0.029613,-0.03224 -0.029044,-0.0208 -0.00215,0.0275 0.035034,0.06293 0.021308,0.114654 -0.076716,0.294266 -0.1384582,0.253691 -0.1455495,0.289029 -0.061893,0.307907 0.034255,0.0077 0.063667,0.04935 0.065171,0.0922 0.0015,0.04263 0.034763,0.09949 0.073407,0.126151 0.039262,0.02707 0.084458,0.07338 0.1017595,0.103859 0.02852,0.05026 0.6517384,0.522371 0.6800255,0.523237 0.035463,0.0011 0.088492,0.05132 0.1215867,0.107775 0,0 0,0 0,0 0,0 0,0 0,0 0.016224,0.02545 0.027991,0.05201 0.031764,0.07533 0.00171,0.01044 0.034043,-0.01419 0.095562,-0.07199 0.024559,0.02234 0.048923,0.04486 0.073093,0.06755 0.045471,0.04269 0.1024337,0.0716 0.1269982,0.06329 0.024687,-0.0083 0.04719,0.0024 0.049862,0.02364 0.00266,0.02117 0.018961,0.02477 0.036342,0.0079 0.045373,-0.04401 0.1109491,0.03502 0.1342047,0.170259 0.018585,0.108066 0.025111,0.114561 0.1107377,0.102153 0.074008,-0.01071 0.190915,-0.09858 0.6124574,-0.466038 0.334192,-0.291366 0.5222228,-0.476189 0.5257197,-0.516966 0.00314,-0.03673 -0.103881,-0.194705 -0.2652327,-0.36935 -0.085787,-0.09283 -0.1737788,-0.184285 -0.2640201,-0.2743 l 4.695e-4,-4.98e-4 c -0.018231,-0.03681 -0.036779,-0.07364 -0.055647,-0.110472 -0.00268,-0.0052 -0.00553,-0.01042 -0.00852,-0.01554 -0.019605,-0.03141 -0.044668,-0.05982 -0.068437,-0.07888 1.4e-6,-2e-6 2.7e-6,-4e-6 4e-6,-6e-6 z"
       sodipodi:nodetypes="cssccsccsssccsccccccscsssscsccssccccssccccsscsssccsscscsccccccsccccscccscccccsccccsssscsssssssccsscsccscssccccccsscssscscscscccccccscssccsscccccscccccssccccscscscsccssccscccccc"
       inkscape:path-effect="#path-effect133"
       inkscape:original-d="m 19.17716,9.9285841 c -0.160236,0 -0.211662,0.015256 -0.211662,0.062792 0,0.034536 -0.01826,0.062791 -0.04055,0.062791 -0.02231,0 -0.0297,-0.02826 -0.01646,-0.062791 0.01713,-0.044624 -0.0045,-0.063352 -0.07458,-0.064728 -0.471571,-0.00922 -0.89413,-0.04712 -0.938784,-0.084181 -0.132911,-0.00979 -0.09516,-0.26678 -0.0599,-0.3953009 0.01979,-0.046048 0.0373,-0.1626729 0.03892,-0.2591661 0.0015,-0.096493 0.01909,-0.1854207 0.03882,-0.1976165 0.01974,-0.012196 0.04644,-0.121625 0.05934,-0.2431761 -0.01406,-0.2471322 0.06164,-0.3371635 0.09622,-0.5259774 0.01367,-0.062503 0.03103,-0.1343678 0.03858,-0.1596986 0.01762,-0.059165 0.295678,-0.084175 0.907147,-0.081593 0.753026,-0.1355025 0.558437,0.06273 0.571644,0.4628199 0.02475,0.054318 0.02592,0.1611976 0.02214,0.2395605 -0.01803,0.3751008 0.05661,-0.010414 0.02675,0.3566905 -0.005,0.063107 -0.0122,0.1861403 -0.09583,0.489831 -0.149409,0.3980054 -0.152179,0.3997374 -0.361838,0.3997374 z M 14.484535,8.9346005 c -0.03489,0.064985 -0.08198,0.1087815 -0.08198,0.1360841 0,0.027304 -0.02698,0.1043397 -0.05996,0.1711933 -0.09003,0.1825427 -0.124225,0.351792 -0.07107,0.351792 0.06219,0 -0.02612,0.208024 -0.12724,0.2997438 -0.08037,0.072896 -0.06766,0.072752 -1.039105,0.01172 -0.218534,-0.013728 -0.428173,-0.038016 -0.450015,-0.068688 -0.0625,-0.087768 -0.148158,-0.022208 -0.02402,-0.3828382 0.0078,-0.09117 0.123165,-0.7834496 0.167723,-1.0066139 -0.03181,-0.1491176 -0.07775,-0.1051014 0.07439,-0.3124975 0.02346,-0.1068092 0.04716,-0.1254147 0.16093,-0.1263414 0.07338,-6.065e-4 0.394582,-0.00438 0.713782,-0.00839 0.601938,-0.00758 0.693898,0.017499 0.625719,0.1706039 -0.02754,0.061838 -0.02743,0.1717776 3.96e-4,0.46048 0.02242,0.2324247 0.02526,0.2409906 0.08777,0.2649802 m 0.27507,-0.4814399 c 0.03131,-0.09967 0.06976,-0.1963847 0.08545,-0.2149207 0.07821,-0.092437 1.235162,-0.084757 2.384914,0.015832 0.241752,0.021151 0.464075,0.02933 0.494051,0.018176 0.02998,-0.011154 0.04379,-0.00296 0.03071,0.018211 -0.0131,0.02117 -0.0043,0.050512 0.01943,0.065205 0.02377,0.014694 0.03239,0.044252 0.01914,0.065686 l -0.04616,0.3535042 c -0.0033,0.1148052 -0.0277,0.3029266 -0.05424,0.4180467 -0.02655,0.1151204 -0.05945,0.3034984 -0.07311,0.4186187 -0.01366,0.1151191 -0.04033,0.219395 -0.05929,0.2317237 -0.01894,0.012328 -0.208006,0.00854 -0.420136,-0.00841 -0.212129,-0.016944 -0.401226,-0.021216 -0.420214,-0.00947 -0.01899,0.011744 -0.03452,-0.00802 -0.03452,-0.04392 0,-0.05272 -0.05834,-0.06608 -0.303499,-0.069512 -0.166923,-0.00232 -0.375117,-0.010752 -0.462652,-0.018696 -0.112907,-0.010248 -0.166175,0.00384 -0.183315,0.048512 -0.0133,0.034632 -0.04854,0.053608 -0.07834,0.042168 -0.03219,-0.012352 -0.07116,0.02788 -0.09599,0.099154 -0.0508,0.1457534 -0.204262,0.1779995 -0.436021,0.091626 -0.12491,-0.046552 -0.170239,-0.048072 -0.242005,0.06072 -0.0734,0.1187675 -0.261374,-0.079952 -0.269451,-0.2249021 -0.0241,-0.4327292 0.09569,0.062056 0.04895,-0.7687123 M 11.67897,9.7936603 C 11.317857,9.6867292 11.320296,9.7029636 10.739598,9.6635308 l -0.125526,-0.00712 -0.02912,-0.351456 c -0.01601,-0.1932766 -0.04897,-0.371294 -0.07325,-0.39557 -0.02427,-0.024275 -0.04414,-0.079158 -0.04414,-0.12196 0,-0.042801 -0.01413,-0.069178 -0.0314,-0.058613 -0.01726,0.010566 -0.03677,-0.068384 -0.04334,-0.1754425 -0.0066,-0.1070572 -0.01599,-0.2417449 -0.02093,-0.2993052 l -0.009,-0.1046442 h 0.586065 c 0.322338,0 0.605011,0.012613 0.628163,0.02803 0.02315,0.015415 0.242495,0.034255 0.487426,0.041861 0.244932,0.00762 0.436804,0.027959 0.42638,0.045227 -0.01046,0.017266 0.003,0.031396 0.02986,0.031396 0.02685,0 0.03797,0.028258 0.02472,0.062793 0.26013,0.3242498 -0.120744,0.2227831 -0.157061,1.0284917 -9.6e-4,0.1742623 -0.01759,0.3422887 -0.03682,0.3733926 -0.0395,0.063928 -0.391053,0.081205 -0.672605,0.033056 z M 1.2666318,9.9131633 C 1.2522211,9.8987529 1.0644481,9.8777113 0.84936254,9.866413 0.05983249,9.8249258 0.12109772,9.8373426 0.14311546,9.723262 0.15395482,9.6670884 0.16078097,9.5410676 0.1582807,9.4432156 0.13607892,8.5741037 0.13949693,8.4215376 0.18233405,8.3699229 0.21275937,8.3332592 0.37969719,8.3025147 0.65388952,8.2830752 1.0998688,8.2514562 1.2030897,8.2305203 1.1707754,8.1782347 c -0.019897,-0.032198 0.3017217,-0.019158 0.4651153,0.018855 0.1221777,0.028426 0.13531,0.1107021 0.094267,0.5906225 -0.022762,0.2661459 -0.020219,0.4615923 0.0071,0.5453754 0.043312,0.1328544 -0.0011,0.4525542 -0.072117,0.5190317 -0.047643,0.044608 -0.3661582,0.093396 -0.3985073,0.061048 z M 2.5723215,9.8736593 C 2.468714,9.8498834 2.3556868,9.8120674 2.3211507,9.7896195 2.2866172,9.7671715 2.2270603,9.7539475 2.1888079,9.7602275 2.0885844,9.7766915 2.0695843,9.7237956 2.0649583,9.4154483 2.0626863,9.264188 2.0478623,9.1484452 2.0320111,9.1582423 c -0.015851,0.00979 -0.056178,-0.00155 -0.089616,-0.025235 -0.050105,-0.03548 -0.048292,-0.039049 0.01032,-0.020305 0.046424,0.014846 0.080107,-0.00558 0.09701,-0.058844 0.025442,-0.080161 0.062769,-0.097212 0.1877002,-0.085743 0.034535,0.00316 0.015698,-0.022186 -0.041862,-0.05635 -0.05756,-0.034162 -0.081107,-0.062781 -0.052327,-0.063599 0.031206,-8.8e-4 0.016874,-0.036933 -0.035494,-0.089304 -0.06495,-0.06495 -0.080628,-0.1167341 -0.060202,-0.1988438 0.015192,-0.061062 0.034092,-0.1641842 0.041999,-0.229159 0.00791,-0.064975 0.021273,-0.1250292 0.029698,-0.1334545 0.00843,-0.00843 0.2974843,-0.025162 0.6423543,-0.037193 L 3.388627,8.138338 3.380977,8.37739 C 3.376757,8.5088685 3.362615,8.7259532 3.349528,8.8598004 3.336437,8.9936475 3.341868,9.1349312 3.361597,9.1737642 3.381963,9.2138532 3.379031,9.3845949 3.354817,9.5687992 3.322307,9.8161576 3.296392,9.8941607 3.2457476,9.8971455 2.9131336,9.9167615 2.7327397,9.9104655 2.5723258,9.8736575 Z m 1.2558561,0.031056 C 3.70717,9.8589194 3.6863523,9.7410067 3.6733968,9.0280395 3.6603996,8.3128284 3.6608425,8.3087655 3.7655357,8.1843469 3.8734743,8.0560691 3.9830001,8.045851 4.1171691,8.1515415 c 0.0332,0.026152 0.2378032,0.047576 0.470433,0.049257 0.2264243,0.00163 0.4230585,0.014354 0.4369646,0.028258 0.013905,0.013906 0.02715,0.3568006 0.029429,0.7619883 0.00343,0.6052872 -0.00714,0.747985 -0.059091,0.7999426 -0.056409,0.056408 -0.076484,0.056328 -0.1858997,-7.383e-4 -0.1394841,-0.072736 -0.2529644,-0.082717 -0.2884103,-0.025368 -0.028838,0.046664 -0.4423176,0.1715934 -0.552344,0.1668878 -0.042505,-0.00184 -0.1055376,-0.014 -0.1400736,-0.027072 z M 6.4236127,9.8921393 C 6.3430284,9.8727785 6.064519,9.8518322 5.8047023,9.8455978 L 5.3323092,9.8342668 5.3631462,9.7067678 C 5.3801042,9.6366448 5.3854692,9.4474055 5.3750622,9.2862374 5.3464202,8.84269 5.3649302,8.4303409 5.4162702,8.3684862 c 0.028242,-0.034031 0.1946175,-0.066309 0.4324371,-0.083896 0.4695706,-0.034727 0.5328676,-0.051557 0.53369,-0.1419089 3.692e-4,-0.040582 0.013678,-0.0525 0.031396,-0.028115 0.016916,0.023278 0.1242485,0.047849 0.2385175,0.054604 0.1142694,0.00676 0.2301494,0.030862 0.2575122,0.05357 0.07891,0.065489 0.05426,1.5256037 -0.02707,1.603346 -0.083664,0.079975 -0.2822796,0.1085498 -0.4591379,0.066055 z M 9.1113157,8.081507 C 9.0900197,8.082339 9.0723477,8.086127 9.0613077,8.092955 9.0318757,8.111145 8.8265985,8.129522 8.6052148,8.133836 7.776946,8.149972 7.39131,8.168965 7.3482687,8.195566 c -0.024386,0.015072 -0.043575,0.068845 -0.042652,0.119508 9.44e-4,0.050662 -0.010908,0.1435156 -0.0263,0.2064476 -0.015397,0.062932 -0.018822,0.1383108 -0.00764,0.1674748 0.01119,0.029163 0.018088,0.064216 0.01526,0.077946 -0.00285,0.01373 0.020308,0.055639 0.051373,0.093071 0.047811,0.057608 0.046176,0.078374 -0.010496,0.1350426 -0.036823,0.036822 -0.067044,0.08386 -0.067044,0.1045184 0,0.020658 -0.032884,0.028127 -0.073176,0.016627 -0.047183,-0.01347 -0.042399,-0.00444 0.013494,0.025347 0.071609,0.038162 0.088038,0.090112 0.093753,0.2974754 0.00805,0.2922635 0.022855,0.3278314 0.1259126,0.3008818 0.041878,-0.010952 0.1006914,0.00965 0.1306822,0.045784 0.029994,0.036136 0.1041165,0.067072 0.1646127,0.06868 0.060497,0.0016 0.1425839,0.015696 0.1824644,0.031344 0.100468,0.039432 1.0462668,0.035944 1.1080043,-0.00408 0.05152,-0.033408 0.2289805,-0.014776 0.3046972,0.032024 0.010776,0.00664 0.01948,-0.033392 0.026024,-0.1177366 h 0.1259134 c 0.079224,0 0.1558742,-0.019112 0.1703358,-0.042512 0.014456,-0.0234 0.04384,-0.03164 0.065272,-0.018392 0.021432,0.013248 0.038976,0.00408 0.038976,-0.020304 0,-0.064032 0.1269071,-0.054048 0.2715847,0.021392 0.116362,0.060672 0.129619,0.059816 0.188869,-0.01336 0.05169,-0.063816 0.06296,-0.2106811 0.06024,-0.7779641 -0.0022,-0.4493459 -0.01982,-0.715875 -0.04946,-0.745528 -0.02673,-0.02672 -0.2236852,-0.048409 -0.4679481,-0.05151 l -0.3902754,-0.0049 V 8.1421574 L 9.2327332,8.1009999 c -0.040544,-0.014134 -0.085923,-0.02088 -0.1214167,-0.019486 z" /></g></svg>
