<?xml version="1.0" encoding="UTF-8" standalone="no"?>
<!-- Created with Inkscape (http://www.inkscape.org/) -->

<svg
   width="75"
   height="75"
   viewBox="0 0 19.84375 19.84375"
   version="1.1"
   id="svg1"
   sodipodi:docname="bust.svg"
   inkscape:version="1.3.2 (091e20e, 2023-11-25, custom)"
   xmlns:inkscape="http://www.inkscape.org/namespaces/inkscape"
   xmlns:sodipodi="http://sodipodi.sourceforge.net/DTD/sodipodi-0.dtd"
   xmlns="http://www.w3.org/2000/svg"
   xmlns:svg="http://www.w3.org/2000/svg">
  <sodipodi:namedview
     id="namedview1"
     pagecolor="#ffffff"
     bordercolor="#000000"
     borderopacity="0.25"
     inkscape:showpageshadow="2"
     inkscape:pageopacity="0.0"
     inkscape:pagecheckerboard="0"
     inkscape:deskcolor="#d1d1d1"
     inkscape:document-units="px"
     inkscape:zoom="5.7941077"
     inkscape:cx="39.609205"
     inkscape:cy="42.888398"
     inkscape:window-width="2560"
     inkscape:window-height="1009"
     inkscape:window-x="-8"
     inkscape:window-y="-8"
     inkscape:window-maximized="1"
     inkscape:current-layer="layer1" />
  <defs
     id="defs1" />
  <g
     inkscape:label="Layer 1"
     inkscape:groupmode="layer"
     id="layer1">
    <path
       id="path1"
       style="color:#000000;fill:#000006;stroke-linejoin:round;stroke-miterlimit:23.6;-inkscape-stroke:none"
       d="M 5.6221375,2.4745111 C 2.5317359,4.2587553 0.96767856,7.6882836 1.3946001,11.026168 l 1.5157875,-0.87514 C 2.8278883,7.6502993 4.0913088,5.1914225 6.4158874,3.8493264 8.7404659,2.5072304 11.501626,2.6425144 13.62607,3.9643254 L 15.141858,3.0891849 C 12.464626,1.0505177 8.7125387,0.6902671 5.6221375,2.4745111 Z M 4.7018919,16.754565 c 2.6772317,2.038667 6.4293191,2.398918 9.5197211,0.614674 3.090401,-1.784244 4.654458,-5.213773 4.227537,-8.5516566 l -1.515788,0.8751405 c 0.0825,2.5007281 -1.180921,4.9596041 -3.5055,6.3017001 -2.324578,1.342097 -5.0857379,1.206813 -7.2101825,-0.114998 z" />
    <path
       style="-inkscape-font-specification:Georgia;stroke-width:0.529;stroke-linejoin:round;stroke-miterlimit:23.6"
       d="m -2.1108826,13.725357 q 0.2242756,0.151929 0.3725869,0.397908 0.1483113,0.24598 0.1483113,0.596863 0,0.358118 -0.155546,0.622184 -0.155546,0.264066 -0.405143,0.434082 -0.2423624,0.166398 -0.549837,0.253214 -0.3038573,0.08682 -0.6294187,0.08682 h -2.4308582 v -0.256832 q 0.086816,-0.0072 0.2532144,-0.02894 0.166398,-0.02532 0.238745,-0.05788 0.1121378,-0.05064 0.1591633,-0.133841 0.047026,-0.08682 0.047026,-0.220659 v -3.689695 q 0,-0.12299 -0.043408,-0.217041 -0.039791,-0.09405 -0.1627807,-0.151929 -0.1085205,-0.05426 -0.2423624,-0.0832 -0.1338419,-0.02894 -0.2242756,-0.03617 v -0.256832 h 2.3693634 q 0.2749185,0 0.5245155,0.05426 0.2532144,0.05426 0.4811074,0.19172 0.2134235,0.126607 0.3508828,0.343648 0.1374592,0.217041 0.1374592,0.528133 0,0.271301 -0.097668,0.484724 -0.097668,0.209807 -0.2749185,0.361735 -0.166398,0.144694 -0.3834389,0.24598 -0.2134236,0.09767 -0.4630206,0.151929 v 0.03256 q 0.2206582,0.02532 0.4919594,0.112137 0.2749185,0.0832 0.488342,0.235128 z m -0.871781,-0.774112 q 0.1338419,-0.155546 0.1844848,-0.340031 0.05426,-0.184485 0.05426,-0.437699 0,-0.42323 -0.2315103,-0.661975 -0.2315103,-0.242363 -0.7307044,-0.242363 -0.1157552,0 -0.2930052,0.0072 -0.1736328,0.0036 -0.2930053,0.0072 v 1.971455 h 0.4594033 q 0.2966226,0 0.5064288,-0.07597 0.2134236,-0.07596 0.3436481,-0.227892 z m 0.4991941,1.638658 q 0,-0.455785 -0.3074746,-0.748791 -0.3038573,-0.293005 -0.871781,-0.293005 -0.2315103,0 -0.3906737,0.0072 -0.1591633,0.0036 -0.238745,0.0072 v 1.808675 q 0,0.227893 0.1844848,0.343648 0.1844848,0.115755 0.5136635,0.115755 0.5389849,0 0.8247555,-0.314709 0.2857705,-0.31471 0.2857705,-0.926042 z m 6.7680593,-3.349664 q -0.1012857,0.0036 -0.2966226,0.04341 -0.1953368,0.03979 -0.3183266,0.119372 -0.1229899,0.0832 -0.1700154,0.343648 -0.047026,0.26045 -0.047026,0.636654 v 2.231904 q 0,0.426847 -0.17725,0.741556 -0.1772501,0.31471 -0.466638,0.517281 -0.2857706,0.195337 -0.6040972,0.278536 -0.3147094,0.08682 -0.6040973,0.08682 -0.4630206,0 -0.82475544,-0.122989 Q 0.4140268,15.997052 0.1680471,15.790863 -0.07431526,15.584674 -0.19730511,15.320608 -0.32029497,15.052924 -0.32029497,14.763536 v -3.034955 q 0,-0.126608 -0.0434082,-0.209807 -0.0397908,-0.08682 -0.16639804,-0.159163 -0.0904337,-0.05064 -0.23151031,-0.07958 -0.14107659,-0.03256 -0.23151031,-0.03979 V 10.983407 H 1.1447312 v 0.256832 q -0.1012857,0.0036 -0.25683173,0.03256 -0.15192864,0.02894 -0.22427561,0.05426 -0.12298986,0.04341 -0.16639804,0.144694 -0.0397908,0.101286 -0.0397908,0.220658 v 2.836002 q 0,0.206188 0.0434082,0.434081 0.0470255,0.224276 0.18086743,0.419613 0.1410766,0.198954 0.383439,0.325561 0.2423623,0.126607 0.6655921,0.126607 0.3979083,0 0.6655921,-0.126607 0.2713012,-0.126607 0.4268472,-0.332796 0.1483113,-0.195337 0.2098062,-0.40876 0.061495,-0.213424 0.061495,-0.430465 v -2.105297 q 0,-0.401525 -0.057878,-0.65474 Q 2.978727,11.518774 2.8665892,11.439193 2.739982,11.348759 2.5193237,11.298116 2.3022828,11.247473 2.1865276,11.240239 v -0.256832 h 2.0980622 z m 3.606497,2.521292 q 0.1627807,0.180867 0.238745,0.397908 0.079582,0.213424 0.079582,0.499194 0,0.680062 -0.5028115,1.121378 -0.5028115,0.441317 -1.2479853,0.441317 -0.3436481,0 -0.6872962,-0.104903 -0.3436481,-0.108521 -0.5932452,-0.26045 l -0.155546,0.264067 H 4.7331414 L 4.6824986,14.36201 h 0.2930052 q 0.090434,0.325562 0.2098062,0.589628 0.1229899,0.260449 0.321944,0.488342 0.1881022,0.213424 0.4376992,0.340031 0.2532144,0.126607 0.5860105,0.126607 0.2495971,0 0.4340818,-0.06511 0.1881022,-0.06511 0.3038573,-0.184485 0.1157552,-0.119372 0.1700154,-0.278536 0.057878,-0.16278 0.057878,-0.372586 0,-0.307475 -0.1736328,-0.571542 Q 7.1495303,14.166674 6.8058822,14.029214 6.5707545,13.935163 6.2668972,13.823026 5.96304,13.70727 5.7423817,13.605985 5.3082999,13.410648 5.0659375,13.095938 q -0.238745,-0.318326 -0.238745,-0.828372 0,-0.293006 0.1193725,-0.54622 0.1193725,-0.253214 0.3400308,-0.452169 0.2098062,-0.188102 0.4955767,-0.293005 0.2857706,-0.10852 0.5968626,-0.10852 0.3545001,0 0.633036,0.10852 0.2821532,0.108521 0.5136635,0.253215 l 0.1483113,-0.24598 h 0.2893878 l 0.028939,1.703771 H 7.6993673 Q 7.6197856,12.394173 7.5184999,12.126489 7.4208315,11.858805 7.2616681,11.641764 7.1061221,11.431958 6.8818465,11.308968 6.6575709,11.182361 6.3320095,11.182361 q -0.3436481,0 -0.5860105,0.220658 -0.2423623,0.220659 -0.2423623,0.538985 0,0.332796 0.155546,0.553455 0.155546,0.217041 0.4521686,0.358117 0.2640664,0.126607 0.5172808,0.220658 0.2568318,0.09043 0.4955768,0.195337 0.2170409,0.09405 0.4159951,0.213424 0.2025715,0.119372 0.3508828,0.278536 z m 5.1330172,-1.385445 h -0.249597 q -0.03256,-0.130224 -0.119373,-0.307475 -0.0832,-0.180867 -0.188102,-0.34003 -0.10852,-0.166398 -0.238745,-0.289388 -0.126607,-0.126607 -0.24598,-0.144694 -0.112137,-0.01447 -0.282153,-0.0217 -0.170015,-0.0072 -0.314709,-0.0072 h -0.209806 v 4.105691 q 0,0.119372 0.05064,0.220658 0.05064,0.09767 0.17725,0.151929 0.06511,0.02532 0.271301,0.06873 0.209806,0.04341 0.325561,0.04703 v 0.256832 H 9.5767706 v -0.256832 q 0.1012858,-0.0072 0.3074747,-0.02894 0.2098057,-0.0217 0.2893877,-0.05426 0.119373,-0.04703 0.173633,-0.133842 0.05788,-0.09043 0.05788,-0.238745 V 11.26556 h -0.209806 q -0.112138,0 -0.2785356,0.0072 -0.166398,0.0036 -0.3183267,0.0217 -0.1193725,0.01447 -0.249597,0.144694 -0.1266072,0.126607 -0.2351277,0.289388 -0.1085204,0.16278 -0.1917195,0.347265 -0.083199,0.180868 -0.1157551,0.30024 H 8.553061 v -1.392679 h 4.471043 z"
       id="text1"
       transform="rotate(-30)"
       aria-label="BUST" />
  </g>
</svg>
