<?xml version="1.0" encoding="UTF-8" standalone="no"?>
<!-- Created with Inkscape (http://www.inkscape.org/) -->

<svg
   width="207"
   height="302"
   viewBox="0 0 54.768749 79.904166"
   version="1.1"
   id="svg1"
   xml:space="preserve"
   inkscape:version="1.3.2 (091e20e, 2023-11-25, custom)"
   sodipodi:docname="door.svg"
   xmlns:inkscape="http://www.inkscape.org/namespaces/inkscape"
   xmlns:sodipodi="http://sodipodi.sourceforge.net/DTD/sodipodi-0.dtd"
   xmlns="http://www.w3.org/2000/svg"
   xmlns:svg="http://www.w3.org/2000/svg"><sodipodi:namedview
     id="namedview1"
     pagecolor="#ffffff"
     bordercolor="#000000"
     borderopacity="0.25"
     inkscape:showpageshadow="2"
     inkscape:pageopacity="0.0"
     inkscape:pagecheckerboard="0"
     inkscape:deskcolor="#d1d1d1"
     inkscape:document-units="px"
     inkscape:zoom="2"
     inkscape:cx="119.25"
     inkscape:cy="141.25"
     inkscape:window-width="2560"
     inkscape:window-height="1009"
     inkscape:window-x="-8"
     inkscape:window-y="-8"
     inkscape:window-maximized="1"
     inkscape:current-layer="layer1" /><defs
     id="defs1" /><g
     inkscape:label="Layer 1"
     inkscape:groupmode="layer"
     id="layer1"><rect
       style="fill:#ffffff;stroke:#000006;stroke-width:0.529167;stroke-linejoin:round;stroke-miterlimit:23.6"
       id="rect5"
       width="10.054166"
       height="2.6458328"
       x="27.516666"
       y="71.172913"
       rx="6.3840453e-05"
       ry="0" /><path
       style="fill:#ffffff;stroke:#000006;stroke-width:0.529167;stroke-linejoin:round;stroke-miterlimit:23.6"
       d="m 22.310324,19.84531 c -2.407517,-3.622225 -7.637023,-6.816066 -6.617003,-10.9585984 2.203364,0.419461 4.262043,1.4900074 5.968552,4.1453154 0.417937,-4.1293945 -1.083284,-9.2429731 3.828958,-11.067596 2.739272,2.2142496 2.415728,6.5167822 2.525697,10.523738 1.125777,-2.015499 2.253094,-4.0298076 6.05727,-3.9756345 0.354789,5.2484625 -2.168353,6.9414795 -3.766891,9.7767695 z"
       id="path16"
       sodipodi:nodetypes="cccccccc" /><path
       id="path1-7-2"
       style="display:inline;fill:#ffffff;stroke:#000006;stroke-width:0.529167;stroke-linejoin:round;stroke-miterlimit:23.6"
       d="M 27.516665,14.690974 C 19.872326,17.508644 8.9265796,28.037576 9.268226,41.274999 l 18.248439,-0.0181 18.248442,0.0181 C 46.106754,28.037576 35.161006,17.508644 27.516665,14.690974 Z" /><path
       id="path1-7"
       style="display:inline;fill:#ffffff;stroke:#000006;stroke-width:0.529167;stroke-linejoin:round;stroke-miterlimit:23.6"
       d="M 27.516666 27.879435 C 22.676729 29.810163 15.74654 37.024812 15.96285 46.095377 L 27.516666 46.082975 L 39.070483 46.095377 C 39.286793 37.024812 32.356603 29.810163 27.516666 27.879435 z " /><path
       style="display:inline;fill:#ffffff;stroke:#000006;stroke-width:0.529167;stroke-linejoin:round;stroke-miterlimit:23.6"
       d="M 27.516666,71.172913 H 36.5125 V 46.029519 c 0.168417,-7.0944 -5.227499,-12.737143 -8.995834,-14.247232 z"
       id="path6"
       sodipodi:nodetypes="ccccc" /><path
       style="fill:#ffffff;stroke:#000006;stroke-width:0.529167;stroke-linejoin:round;stroke-miterlimit:23.6"
       d="m 36.5125,71.172913 7.937473,-0.264584 c -0.63245,-2.077403 -0.655377,-2.297203 -0.793724,-4.762497 -0.124176,-2.212787 0.05305,-8.435916 0,-10.937808 V 44.979166 c 0,-1.415494 1.431858,-3.648827 3.96875,-3.704167 L 35.71875,41.010416 Z"
       id="path10"
       sodipodi:nodetypes="ccscsccc" /><path
       style="fill:#ffffff;stroke:#000006;stroke-width:0.529167;stroke-linejoin:round;stroke-miterlimit:23.6"
       d="m 34.395833,76.729166 h 13.229166 c 0.975324,-0.335562 1.321441,-1.773398 1.322917,-3.175 H 34.395833 Z"
       id="path1"
       sodipodi:nodetypes="ccccc" /><path
       style="fill:#ffffff;stroke:#000006;stroke-width:0.529167;stroke-linejoin:round;stroke-miterlimit:23.6"
       d="m 35.71878,73.554166 -6.1e-5,-2.645834 9.789614,-0.79375 c 1.254889,0.75684 1.967461,2.099427 1.5875,3.439584 z"
       id="path2"
       sodipodi:nodetypes="ccccc" /><path
       style="fill:#ffffff;stroke:#000006;stroke-width:0.529167;stroke-linejoin:round;stroke-miterlimit:23.6"
       d="m 35.71875,41.010416 11.906249,0.264583 c 2.334791,-4.460516 4.229522,-6.060642 6.085417,-7.408333 H 35.189583 Z"
       id="path3"
       sodipodi:nodetypes="ccccc" /><path
       style="fill:#ffffff;stroke:#000006;stroke-width:0.529167;stroke-linejoin:round;stroke-miterlimit:23.6"
       d="m 37.529528,38.814576 9.321947,0.228323"
       id="path4"
       sodipodi:nodetypes="cc" /><path
       style="fill:#ffffff;stroke:#000006;stroke-width:0.529167;stroke-linejoin:round;stroke-miterlimit:23.6"
       d="m 37.257794,36.485702 11.374584,0.228323"
       id="path5"
       sodipodi:nodetypes="cc" /><path
       style="fill:#ffffff;stroke:#000006;stroke-width:0.529167;stroke-linejoin:round;stroke-miterlimit:23.6"
       d="m 31.873615,60.916052 c -0.762235,-1.561917 -2.809829,-2.964537 -3.196494,-7.945572 1.194757,-0.69955 2.687668,-0.653717 4.368935,-0.136994 v 3.287824 c 0,0 -2.111765,-2.321014 -2.496702,-1.369927 -0.538204,1.329773 1.564167,6.181805 1.324261,6.164669 z"
       id="path7"
       sodipodi:nodetypes="ccccsc" /><path
       style="fill:#ffffff;stroke:#000006;stroke-width:0.529167;stroke-linejoin:round;stroke-miterlimit:23.6"
       d="M 39.819188,68.359315 39.08856,42.056735"
       id="path8" /><path
       style="fill:#ffffff;stroke:#000006;stroke-width:0.529167;stroke-linejoin:round;stroke-miterlimit:23.6"
       d="M 41.828413,60.961716 41.458126,42.78736"
       id="path9" /><rect
       style="fill:#ffffff;stroke:#000006;stroke-width:0.529167;stroke-linejoin:round;stroke-miterlimit:23.6"
       id="rect5-8"
       width="10.054166"
       height="2.6458328"
       x="-27.516666"
       y="71.172913"
       rx="6.3840453e-05"
       ry="0"
       transform="scale(-1,1)" /><path
       style="display:inline;fill:#ffffff;stroke:#000006;stroke-width:0.529167;stroke-linejoin:round;stroke-miterlimit:23.6"
       d="M 27.516666,71.172913 H 18.520832 V 46.029519 c -0.168417,-7.0944 5.227499,-12.737143 8.995834,-14.247232 z"
       id="path6-7"
       sodipodi:nodetypes="ccccc" /><path
       style="fill:#ffffff;stroke:#000006;stroke-width:0.529167;stroke-linejoin:round;stroke-miterlimit:23.6"
       d="m 18.520832,71.172913 -7.937473,-0.264584 c 0.63245,-2.077403 0.655377,-2.297203 0.793724,-4.762497 0.124176,-2.212787 -0.05305,-8.435916 0,-10.937808 V 44.979166 c 0,-1.415494 -1.431858,-3.648827 -3.96875,-3.704167 l 11.906249,-0.264583 z"
       id="path10-7"
       sodipodi:nodetypes="ccscsccc" /><path
       style="fill:#ffffff;stroke:#000006;stroke-width:0.529167;stroke-linejoin:round;stroke-miterlimit:23.6"
       d="m 19.314552,73.554166 6.1e-5,-2.645834 -9.789614,-0.79375 c -1.254889,0.75684 -1.967461,2.099427 -1.5875,3.439584 z"
       id="path2-8"
       sodipodi:nodetypes="ccccc" /><path
       style="fill:#ffffff;stroke:#000006;stroke-width:0.529167;stroke-linejoin:round;stroke-miterlimit:23.6"
       d="M 19.314582,41.010416 7.408333,41.274999 C 5.073542,36.814483 3.178811,35.214357 1.322916,33.866666 h 18.520833 z"
       id="path3-8"
       sodipodi:nodetypes="ccccc" /><path
       style="fill:#ffffff;stroke:#000006;stroke-width:0.529167;stroke-linejoin:round;stroke-miterlimit:23.6"
       d="M 17.503804,38.814576 8.181857,39.042899"
       id="path4-6"
       sodipodi:nodetypes="cc" /><path
       style="fill:#ffffff;stroke:#000006;stroke-width:0.529167;stroke-linejoin:round;stroke-miterlimit:23.6"
       d="M 17.775538,36.485702 6.400954,36.714025"
       id="path5-7"
       sodipodi:nodetypes="cc" /><path
       style="fill:#ffffff;stroke:#000006;stroke-width:0.529167;stroke-linejoin:round;stroke-miterlimit:23.6"
       d="m 23.159717,60.916052 c 0.762235,-1.561917 2.809829,-2.964537 3.196494,-7.945572 -1.194757,-0.69955 -2.687668,-0.653717 -4.368935,-0.136994 v 3.287824 c 0,0 2.111765,-2.321014 2.496702,-1.369927 0.538204,1.329773 -1.564167,6.181805 -1.324261,6.164669 z"
       id="path7-7"
       sodipodi:nodetypes="ccccsc" /><path
       style="fill:#ffffff;stroke:#000006;stroke-width:0.529167;stroke-linejoin:round;stroke-miterlimit:23.6"
       d="m 15.214144,68.359315 0.730628,-26.30258"
       id="path8-7" /><path
       style="fill:#ffffff;stroke:#000006;stroke-width:0.529167;stroke-linejoin:round;stroke-miterlimit:23.6"
       d="M 13.204919,60.961716 13.575206,42.78736"
       id="path9-0" /><path
       style="fill:#ffffff;stroke:#000006;stroke-width:0.529167;stroke-linejoin:round;stroke-miterlimit:23.6"
       d="M 34.338373,27.853806 37.45038,33.24396 48.948171,28.817052 43.921083,20.10988 Z"
       id="path11"
       sodipodi:nodetypes="ccccc" /><path
       style="fill:#ffffff;stroke:#000006;stroke-width:0.529167;stroke-linejoin:round;stroke-miterlimit:23.6"
       d="m 28.093452,24.0382 5.390154,3.112007 7.743925,-9.58271 -8.707172,-5.027088 z"
       id="path12"
       sodipodi:nodetypes="ccccc" /><path
       style="fill:#ffffff;stroke:#000006;stroke-width:0.529167;stroke-linejoin:round;stroke-miterlimit:23.6"
       d="M 20.637743,76.729166 H 7.4085768 c -0.975324,-0.335562 -1.321441,-1.773398 -1.322917,-3.175 H 20.637743 Z"
       id="path13"
       sodipodi:nodetypes="ccccc" /><path
       style="fill:#ffffff;stroke:#000006;stroke-width:0.529167;stroke-linejoin:round;stroke-miterlimit:23.6"
       d="M 20.695203,27.853806 17.583196,33.24396 6.0854048,28.817052 11.112493,20.10988 Z"
       id="path14"
       sodipodi:nodetypes="ccccc" /><path
       style="fill:#ffffff;stroke:#000006;stroke-width:0.529167;stroke-linejoin:round;stroke-miterlimit:23.6"
       d="m 26.940288,24.0382 -5.390154,3.112007 -7.743925,-9.58271 8.707172,-5.027088 z"
       id="path15"
       sodipodi:nodetypes="ccccc" /></g></svg>
